<svg xmlns="http://www.w3.org/2000/svg" enable-background="new 0 0 1893 937" viewBox="0 0 1893 937"><defs><filter id="a"><feColorMatrix in="SourceGraphic" values="0 0 0 0 0.976471 0 0 0 0 0.976471 0 0 0 0 0.976471 0 0 0 1.000000 0"/></filter></defs><g filter="url(#a)" transform="translate(0 -1)"><path fill="#0dbefc" fill-rule="evenodd" d="M130.1 212.5c2.3-.8 4.5-1.7 6.8-2.5v-24c-2.3.8-4.5 1.5-6.8 2.3v24.2zm32.5 29.7c2.3-.8 4.5-1.6 6.8-2.3v-24.4c-2.3.7-4.5 1.5-6.8 2.2v24.5zm0 39c2.3-.8 4.5-1.6 6.8-2.4v-25.5c-2.3.8-4.5 1.6-6.8 2.4v25.5zm-81.3 409c2.3-.9 4.5-1.7 6.8-2.6v-31.7c-2.3.9-4.5 1.8-6.8 2.8v31.5zm97.5 71.4c2.3-.4 4.5-.8 6.8-1.1V724c-2.3.4-4.5.9-6.8 1.3v36.3zM0 148v28.2c2.3-1 4.5-2 6.8-3v-38.3c-2.3.8-4.5 1.6-6.8 2.4V148zm178.8 278.1v73.4c2.3-.7 4.5-1.5 6.8-2.2V394.9c-2.3.8-4.5 1.6-6.8 2.3v28.9zm-48.7 345v60.8c2.3-.3 4.5-.6 6.8-.9v-74.4c-2.3.5-4.5 1-6.8 1.5v13zm16.3 6.4v62.1c2.3-.3 4.5-.5 6.8-.8v-75.9c-2.3.4-4.5.9-6.8 1.3v13.3zm-81.3 15.2v32.2c2.3-.5 4.5-1 6.8-1.4v-55.8c-2.3.7-4.5 1.3-6.8 2v23zm97.5-172V679c2.3-.6 4.5-1.2 6.8-1.7v-63.4c-2.3.7-4.5 1.3-6.8 2v4.8zm16.2-37.7c2.3-.7 4.5-1.3 6.8-2v-32.7c-2.3.7-4.5 1.4-6.8 2.1V583zm130.1-358.3c2.3-.3 4.5-.5 6.8-.8v-23.6c-2.3.2-4.5.5-6.8.8v23.6zm-16.2 18.8c2.3-.3 4.5-.7 6.8-1v-24.3c-2.3.3-4.5.6-6.8.9v24.4zm-48.8 19.1c2.3-.5 4.5-1 6.8-1.5v-24.9c-2.3.5-4.5 1-6.8 1.5v24.9zm32.5 131.5v197.3c2.3-.3 4.5-.6 6.8-.9V393c-2.3.3-4.5.7-6.8 1.1zm71.8 55.3V307.7c-2.3.2-4.5.3-6.8.5v141.9c2.3-.2 4.5-.3 6.8-.5v-.2zM243.9 584.2c2.3-.4 4.5-.9 6.8-1.3v-34c-2.3.4-4.5.9-6.8 1.3v34zm0 152.8c2.3-.3 4.5-.5 6.8-.8v-37.6c-2.3.3-4.5.6-6.8.9V737zm-32.5 49.6c2.3-.3 4.5-.5 6.8-.8v-37.9c-2.3.3-4.5.6-6.8 1v37.7zm65 17.6c2.3-.1 4.5-.3 6.8-.4v-39.7c-2.3.2-4.5.3-6.8.5v39.6zm48.8 24.5c2.3-.1 4.5-.1 6.8-.2v-41c-2.3.1-4.5.2-6.8.3v40.9zM308.9 842c2.3-.1 4.5-.1 6.8-.2v-41.1c-2.3.1-4.5.2-6.8.3v41zm-32.5 9c2.3-.1 4.5-.2 6.8-.3V810c-2.3.1-4.5.3-6.8.4V851zm16.3 3.8c2.3-.1 4.5-.2 6.8-.2v-41.1c-2.3.1-4.5.2-6.8.3v41zm-90.8-15.6v-38.4c-2.3.3-4.5.5-6.8.8v68.1c2.3-.1 4.5-.3 6.8-.4v-30.1zm25.7 28.2c2.3-.1 4.5-.2 6.8-.3v-40c-2.3.2-4.5.3-6.8.5v39.8zm-16.2 9.1c2.3-.1 4.5-.2 6.8-.3v-39.7c-2.3.2-4.5.4-6.8.5v39.5zm48.7-705.2v39.3c2.3-.4 4.5-.8 6.8-1.2V162c-2.3.4-4.5.7-6.8 1.1v8.2zm48.8 196.4V419c2.3-.3 4.5-.6 6.8-.8V356c-2.3.3-4.5.6-6.8.9v10.8zm-48.8 73v119.1c2.3-.4 4.5-.8 6.8-1.2V434.5c-2.3.4-4.5.9-6.8 1.3v4.9zm-32.5 44.6c2.3-.6 4.5-1.1 6.8-1.6v-15.9c-2.3.5-4.5 1.1-6.8 1.7v15.8zm-25.7 218.4zm107 194.4l6.8-.1v-42.3c-2.3.1-4.5.1-6.8.2v42.2zm-48.8-51.4v71.1c2.3 0 4.5 0 6.8-.1v-86.5c-2.3.1-4.5.3-6.8.4v15.1zm88.1 21.6V847c-2.3 0-4.5.1-6.8.1v89.8h6.8v-68.6zM227.6 246.1c2.3-.6 4.5-1.1 6.8-1.6v-24.4c-2.3.5-4.5 1-6.8 1.6v24.4zm16.3 80.4c2.3-.5 4.5-1.1 6.8-1.6v-27c-2.3.5-4.5 1-6.8 1.5v27.1zm48.8-25.2v138.5c2.3-.3 4.5-.7 6.8-1V296.3c-2.3.3-4.5.7-6.8 1v4zm55.5-4.2c-2.3.2-4.5.3-6.8.5v4.8c2.3-.2 4.5-.4 6.8-.5v-4.8zm-65 41c-2.3.4-4.5.8-6.8 1.2V393c2.3-.4 4.5-.8 6.8-1.2v-53.7zm65 353.6V601c-2.3.1-4.5.3-6.8.4v127.2c2.3-.1 4.5-.2 6.8-.3v-36.6zM520.3 224c2.3.3 4.5.6 6.8.9v-23.6c-2.3-.3-4.5-.6-6.8-.9V224zm-65.1 28.7c2.3.2 4.5.3 6.8.5v-24.7c-2.3-.2-4.5-.3-6.8-.5v24.7zm16.3 0c2.3.2 4.5.4 6.8.6v-24.7c-2.3-.2-4.5-.4-6.8-.6v24.7zm-32.5 120v29.9c2.3.1 4.5.2 6.8.4v-30.1c-2.3-.1-4.5-.3-6.8-.4v.2zm-65.1 39.2v120.8c2.3-.1 4.5-.1 6.8-.2V407.1c-2.3.1-4.5.1-6.8.2v4.6zm130.1 14v31.3c2.3.3 4.5.5 6.8.8v-51.7c-2.3-.3-4.5-.6-6.8-.9v20.5zm16.3 21.6c2.3.3 4.5.6 6.8.9v-30.8c-2.3-.3-4.5-.7-6.8-1v30.9zm-97.6 306.8c2.3 0 4.5.1 6.8.1v-39.5c-2.3 0-4.5-.1-6.8-.1v39.5zm32.5 76.2c2.3 0 4.5.1 6.8.1v-41.1c-2.3-.1-4.5-.1-6.8-.2v41.2zm-32.5 18.6c2.3 0 4.5 0 6.8.1v-41.7c-2.3 0-4.5-.1-6.8-.1v41.7zm97.6-12.5c2.3.1 4.5.2 6.8.3v-40.4c-2.3-.1-4.5-.2-6.8-.4v40.5zm-146.4 45.3h6.8v-42.5c-2.3 0-4.5 0-6.8.1v42.4zm16.3-582.8c2.3 0 4.5 0 6.8-.1v-26.4c-2.3 0-4.5 0-6.8.1v26.4zm32.5 167.8c2.3.1 4.5.1 6.8.2V451c-2.3-.1-4.5-.2-6.8-.2v16.1zm-32.5 8.5v57.5h6.8v-69.7c-2.3 0-4.5 0-6.8.1v12.1zM504 630.6v63.9c2.3.2 4.5.3 6.8.5v-77.3c-2.3-.2-4.5-.4-6.8-.6v13.5zm-32.5 16.9v94.6c2.3.1 4.5.2 6.8.3V634.3c-2.3-.2-4.5-.3-6.8-.4v13.6zm-48.8 258.7l6.8.1v-43l-6.8-.1zm97.6-12c2.3 0 4.5.1 6.8.1v-41.7c-2.3-.1-4.5-.2-6.8-.2v41.8zM373.9 286v93.2c2.3-.1 4.5-.1 6.8-.2V269.5c-2.3.1-4.5.1-6.8.2V286zm113.9 47v37.9c2.3.2 4.5.5 6.8.8v-61c-2.3-.3-4.5-.5-6.8-.8V333zM439 590.9v63c2.3.1 4.5.2 6.8.2V586c-2.3-.1-4.5-.2-6.8-.3v5.2zm162.4-367.7c2.3.4 4.5.9 6.8 1.4v-23.8c-2.3-.4-4.5-.9-6.8-1.3v23.7zm-48.7-14.1V233c2.3.4 4.5.7 6.8 1.1v-33c-2.3-.4-4.5-.7-6.8-1.1v9.1zm16.2 18.2v24.6c2.3.4 4.5.8 6.8 1.2v-24.6c-2.3-.4-4.6-.8-6.8-1.2zm6.8 25.8zm42-7.6v25.2c2.3.5 4.5 1 6.8 1.5V247c-2.3-.5-4.6-1-6.8-1.5zm6.7 26.7h.1-.1zm0 30.1h.1-.1zm-6.7-27.6v26.1c2.3.5 4.5 1 6.8 1.6v-26.1c-2.3-.6-4.6-1.1-6.8-1.6zm-32.6 128v46.8c2.3.4 4.5.9 6.8 1.4v-58.1c-2.3-.5-4.5-.9-6.8-1.4v11.3zm97.6 309.2c2.3.4 4.5.8 6.8 1.1v-34.5c-2.3-.4-4.5-.9-6.8-1.3v34.7zm16.3 9.7c2.3.4 4.5.8 6.8 1.2v-34.3c-2.3-.4-4.5-.9-6.8-1.3v34.4zm-48.8 3v36.3c2.3.3 4.5.6 6.8.8v-63.6c-2.3-.4-4.5-.7-6.8-1.1v27.6zm65.1 6.5c2.3.4 4.5.8 6.8 1.2v-34c-2.3-.4-4.5-.9-6.8-1.3v34.1zm-81.4 62.7c2.3.2 4.5.4 6.8.7v-37.2c-2.3-.3-4.5-.5-6.8-.8v37.3zm65.1 51.6c2.3.2 4.5.4 6.8.5v-36.3c-2.3-.2-4.5-.5-6.8-.7v36.5zm0-600.9c2.3.6 4.5 1.2 6.8 1.8v-24.8c-2.3-.6-4.5-1.1-6.8-1.7v24.7zm0-38.9c2.3.5 4.5 1.1 6.8 1.6v-12.1c-2.3-.5-4.5-1.1-6.8-1.6v12.1zM575.7 311.8c-2.3-.4-4.5-.9-6.8-1.3v141.9c2.3.4 4.5.8 6.8 1.3V311.8zm0-15.7zm-6.8-14.5v13.2c2.3.4 4.5.9 6.8 1.3v-13.2c-2.3-.5-4.6-.9-6.8-1.3zm113.8 31.9v113.8c2.3.6 4.5 1.3 6.8 1.9V301.3c-2.3-.6-4.5-1.2-6.8-1.8v14zm-97.6 592.9c2.3 0 4.5.1 6.8.1v-40.6c-2.3-.1-4.5-.2-6.8-.3v40.8zm0-64.4c2.3.1 4.5.2 6.8.4v-19.9c-2.3-.2-4.5-.3-6.8-.4V842zm97.6-622.1v24.6c2.3.6 4.5 1.1 6.8 1.7V218c-2.3-.5-4.5-1.1-6.8-1.6v3.5zm-32.5 63.2c2.3.6 4.5 1.1 6.8 1.7v-25.6c-2.3-.6-4.5-1.1-6.8-1.6v25.5zm65.1-25.9v44.5c2.3.6 4.5 1.3 6.8 2v-48.4c-2.3-.6-4.5-1.2-6.8-1.8v3.7zM699 267.5v25.9c2.3.6 4.5 1.3 6.8 1.9v-29.7c-2.3-.6-4.5-1.2-6.8-1.8v3.7zm-32.5.7v437.7c2.3.4 4.5.7 6.8 1.1V265.9c-2.3-.6-4.5-1.1-6.8-1.7v4zm-65.1 42.3v89.3c2.3.5 4.5 1 6.8 1.5V289.4c-2.3-.5-4.5-1-6.8-1.5v22.6zm0-40.4c2.3.5 4.5 1 6.8 1.4V267c-2.3-.5-4.5-1-6.8-1.4v4.5zm48.8 49.9v101.4c2.3.6 4.5 1.2 6.8 1.7V319.3c-2.3-.6-4.5-1.2-6.8-1.7v2.4zm0-20.7c2.3.6 4.5 1.1 6.8 1.7v-4.7c-2.3-.6-4.5-1.1-6.8-1.7v4.7zm-16.3-.6v46.5c2.3.6 4.5 1.1 6.8 1.7v-50.3c-2.3-.5-4.5-1.1-6.8-1.6v3.7zm16.3 271.2V629c2.3.4 4.5.9 6.8 1.3v-62.2c-2.3-.5-4.5-1-6.8-1.5v3.3zm-25.7 161.3h-.1zm-.1-60.8v-6.3c-2.3-.4-4.5-.7-6.8-1.1v67.3c2.3.3 4.5.6 6.8.9v-60.8zm9.5 8.4v62c2.3.3 4.5.6 6.8.9v-66.9c-2.3-.4-4.5-.7-6.8-1.1v5.1zm-81.2-111.6v60.1c2.3.3 4.5.6 6.8.9v-69c-2.3-.3-4.5-.7-6.8-1v9zm260.1 199.9c2.3.4 4.5.8 6.8 1.2v-31.8c-2.3-.5-4.5-.9-6.8-1.4v32zm-65.1 17.8l6.8 1v-34c-2.3-.4-4.5-.8-6.8-1.2v34.2zm113.9-53.1c2.3.5 4.5 1 6.8 1.5v-30.2c-2.3-.6-4.5-1.1-6.8-1.7v30.4zm-16.3-8.5c2.3.5 4.5 1 6.8 1.5v-30.5l-6.8-1.7v30.7zm-65.1 1.8c2.3.5 4.5.9 6.8 1.4v-32.2c-2.3-.5-4.5-1-6.8-1.5v32.3zm16.3-16c2.3.5 4.5 1 6.8 1.5V679c-2.3-.6-4.5-1.1-6.8-1.7v31.8zm65.1-213.7V683c2.3.6 4.5 1.2 6.8 1.8V489c-2.3-.8-4.5-1.6-6.8-2.4v8.8zM829 406.6v85.3c2.3.8 4.5 1.5 6.8 2.3v-90.9c-2.3-.8-4.5-1.6-6.8-2.4v5.7zm65.1-161.1l6.8 2v-27.3l-6.8-1.8zM747.7 255c2.3.6 4.5 1.3 6.8 1.9v-25.4c-2.3-.6-4.5-1.2-6.8-1.8V255zm32.5-21c2.3.6 4.5 1.3 6.8 1.9v-25.3c-2.3-.6-4.5-1.2-6.8-1.8V234zm113.9-40.5l6.8 1.7v-27.1c-2.3-.5-4.5-1-6.8-1.5v26.9zm-16.3-24.4v26.5c2.3.6 4.5 1.1 6.8 1.7v-36.9c-2.3-.5-4.5-1-6.8-1.5v10.2zm-16.2 595.6V807l6.8 1v-63.9c-2.3-.5-4.5-1-6.8-1.5v22.1zm16.2 11V791l6.8 1.2v-41.3c-2.3-.5-4.5-1-6.8-1.5v26.3zm-32.5-19v42.9l6.8 1.1v-64.9c-2.3-.5-4.5-1-6.8-1.5v22.4zM731.5 608.4v68.2c2.3.5 4.5 1 6.8 1.5V598c-2.3-.6-4.5-1.2-6.8-1.8v12.2zm65-30.4v31.3c2.3.6 4.5 1.3 6.8 1.9v-57.4c-2.3-.7-4.5-1.4-6.8-2.1V578zm-16.3-169.5v206.6c2.3.6 4.5 1.2 6.8 1.9V399.9c-2.3-.8-4.5-1.5-6.8-2.2v10.8zm113.9-132.2v57.6l6.8 2.3V268c-2.3-.7-4.5-1.4-6.8-2.1v10.4zm0 403.7v33.7c2.3.6 4.5 1.1 6.8 1.7v-54.5c-2.3-.7-4.5-1.3-6.8-2V680zm-81.3 1.4v36.1c2.3.5 4.5 1 6.8 1.5v-58.3c-2.3-.6-4.5-1.2-6.8-1.8v22.5zm-32.6-30.8v31.9c2.3.5 4.5 1 6.8 1.6v-54.3c-2.3-.6-4.5-1.2-6.8-1.8v22.6zm65.1-260.1v4.9c2.3.8 4.5 1.6 6.8 2.4V366c-2.3-.8-4.5-1.6-6.8-2.3v26.8zM829 364.3v31.6c2.3.8 4.5 1.6 6.8 2.3v-51.5c-2.3-.8-4.5-1.5-6.8-2.3v19.9zM764 294v156.9c2.3.7 4.5 1.4 6.8 2.2V277.2c-2.3-.7-4.5-1.3-6.8-2V294zm97.6-23.9v50.4c2.3.7 4.5 1.5 6.8 2.3v-60.9l-6.8-2v10.2zm-48.8 19.2c2.3.7 4.5 1.4 6.8 2.1V265c-2.3-.7-4.5-1.4-6.8-2v26.3zm-16.3-26.8v30c2.3.7 4.5 1.4 6.8 2.1v-48.7c-2.3-.7-4.5-1.3-6.8-2v18.6zm-65 109.6v28.1c2.3.7 4.5 1.4 6.8 2.1v-48c-2.3-.7-4.5-1.4-6.8-2.1v19.9zm195 403.3l6.8 1.4v-28.6c-2.3-.5-4.5-1-6.8-1.6v28.8zm16.3-14.2l6.8 1.5v-28.1c-2.3-.6-4.5-1.1-6.8-1.7v28.3zm48.8-70.9c2.3.7 4.5 1.3 6.8 2V665c-2.3-.7-4.5-1.4-6.8-2.1v27.4zm-81.3 10.1l6.8 1.8v-28.8c-2.3-.6-4.5-1.3-6.8-1.9v28.9zm0-33.4c2.3.7 4.5 1.3 6.8 2v-28.8c-2.3-.7-4.5-1.4-6.8-2.1V667zm16.2-156.3V539l6.8 2.4v-44.6c-2.3-.8-4.5-1.6-6.8-2.5v16.4zm48.8-1l6.8 2.4V484l-6.8-2.5zm-65-51.5l6.8 2.4v-28.2l-6.8-2.4zm81.3-36.3l6.8 2.4v-28.6c-2.3-.8-4.5-1.6-6.8-2.4v28.6zm65.1-41.3v29.3c2.3.8 4.5 1.5 6.8 2.3v-43.9c-2.3-.7-4.5-1.4-6.8-2.2v14.5zm-81.4-111.7l6.8 1.9v-28.9l-6.8-1.9zm48.8-36.6v30l6.8 1.8v-41.7c-2.3-.5-4.5-1.1-6.8-1.6v11.5zm-16.2-1.8l6.7 1.7v-29.9l-6.7-1.6zm48.8-20.8c2.3.5 4.5 1 6.8 1.5v-31.4c-2.3-.4-4.5-.9-6.8-1.3v31.2zm-130.2.3l6.8 1.7v-27.9c-2.3-.5-4.5-1-6.8-1.6V210zm81.4-25.3c2.3.5 4.5 1 6.8 1.5V156c-2.3-.4-4.5-.8-6.8-1.3v30zm16.2-27l6.8 1.2V128l-6.8-1zm-16.2 607.1c2.3.5 4.5 1 6.8 1.5V753c-2.3-.5-4.5-1.1-6.8-1.6v13.4zm0-29.2c2.3.6 4.5 1.2 6.8 1.7v-26.7c-2.3-.6-4.5-1.3-6.8-1.9v26.9zM926.5 315v151.6c2.3.8 4.5 1.6 6.8 2.5V297l-6.8-2.1V315zm32.6-24.5v39l6.8 2.2V272c-2.3-.7-4.5-1.3-6.8-2v20.5zm-16.3 1.6v38.6l6.8 2.3v-59.2l-6.8-2zm81.3 26.9v58.3c2.3.8 4.5 1.5 6.8 2.3v-79.9c-2.3-.7-4.5-1.3-6.8-2V319zm32.6-25.4v56.2c2.3.7 4.5 1.4 6.8 2.1v-68c-2.3-.6-4.5-1.2-6.8-1.8v11.5zm-113.9-24.3c2.3.7 4.5 1.3 6.8 2V243c-2.3-.6-4.5-1.3-6.8-1.9v28.2zm-16.3-16.9v31.8c2.3.7 4.5 1.4 6.8 2.1v-52.1l-6.8-1.9v20.1zm146.3 500.7c2.3.6 4.5 1.1 6.8 1.7v-25.3c-2.3-.6-4.5-1.2-6.8-1.8v25.4zm-16.1-38c2.3.6 4.5 1.2 6.8 1.9v-26.1c-2.3-.7-4.5-1.3-6.8-2v26.2zm81.2-24.5c2.3.6 4.5 1.3 6.8 1.9V667c-2.3-.7-4.5-1.3-6.8-2v25.6zm16.3-183.8v77.1c2.3.7 4.5 1.4 6.8 2.1v-88.2c-2.3-.7-4.5-1.4-6.8-2.1v11.1zm-48.8 7.8v120.8c2.3.7 4.5 1.4 6.8 2.1V500.1c-2.3-.7-4.5-1.5-6.8-2.2v16.7zm48.8-23.4c2.3.7 4.5 1.4 6.8 2.1v-29.4c-2.3-.7-4.5-1.4-6.8-2v29.3zm-65.1-30.8v81.9c2.3.8 4.5 1.5 6.8 2.3v-99.4c-2.3-.7-4.5-1.5-6.8-2.2v17.4zm130.1-92.2c2.3.5 4.5 1 6.8 1.6V337c-2.3-.5-4.5-1-6.8-1.5v32.7zm-48.8 5.4c2.3.6 4.5 1.2 6.8 1.8v-31.8c-2.3-.6-4.5-1.1-6.8-1.7v31.7zm48.8-189.4c2.3.3 4.5.6 6.8.9v-36.5c-2.3-.3-4.5-.5-6.8-.8v36.4zm-48.8-1.3c2.3.4 4.5.7 6.8 1.1v-35.1c-2.3-.3-4.5-.6-6.8-.9v34.9zm16.3-17.7c2.3.3 4.5.6 6.8.9v-35.9c-2.3-.2-4.5-.5-6.8-.7v35.7zm-65.1 17.1c2.3.4 4.5.8 6.8 1.2v-33.7c-2.3-.3-4.5-.7-6.8-1v33.5zm88.1 576.5zm0-18v-14.4c-2.3-.5-4.5-1.1-6.8-1.6v32.6c2.3.5 4.5 1 6.8 1.5v-18.1zm-39.3-3.2v12.1c2.3.5 4.5 1.1 6.8 1.6v-33.1c-2.3-.6-4.5-1.1-6.8-1.7v21.1zm39.3-23.1zm-120.6-335.1v40.8c2.3.7 4.5 1.5 6.8 2.2v-62.7c-2.3-.7-4.5-1.4-6.8-2v21.7zm16.3-41.8c2.3.6 4.5 1.3 6.8 1.9v-15.6c-2.3-.6-4.5-1.2-6.8-1.9v15.6zm-32.6-38v110.9c2.3.7 4.5 1.5 6.8 2.2V279.2c-2.3-.6-4.5-1.2-6.8-1.8v22.2zm0-125.5c2.3.4 4.5.8 6.8 1.2v-16.2c-2.3-.4-4.5-.8-6.8-1.1v16.1zm65.1 440.7v45.8c2.3.7 4.5 1.3 6.8 2v-49.3c-2.3-.7-4.5-1.4-6.8-2.1v3.6zm71.8-231.4zm0-27.9v-32.8c-2.3-.5-4.5-1-6.8-1.5v60.5c2.3.6 4.5 1.1 6.8 1.7v-27.9zm-23-33.5v32.4c2.3.6 4.5 1.1 6.8 1.7v-56.3c-2.3-.5-4.5-1-6.8-1.5V322zm-16.3-99.8v38.5c2.3.5 4.5.9 6.8 1.4v-63.5c-2.3-.4-4.5-.7-6.8-1.1v24.7zm-65 13.7v67.8c2.3.6 4.5 1.2 6.8 1.8V214l-6.8-1.4v23.3zm32.5-30.6v103.8c2.3.6 4.5 1.1 6.8 1.7V193.4c-2.3-.4-4.5-.8-6.8-1.2v13.1zM1300.5 743c2.3.4 4.5.8 6.8 1.2v-23.4c-2.3-.4-4.5-.8-6.8-1.3V743zm-16.3.1c2.3.4 4.5.9 6.8 1.3v-23.5c-2.3-.4-4.5-.9-6.8-1.3v23.5zm-16.3-17.8c2.3.5 4.5.9 6.8 1.4v-24.1c-2.3-.5-4.5-1-6.8-1.5v24.2zm-9.4-101.4c-2.3-.5-4.5-1.1-6.8-1.7v31c2.3.5 4.5 1.1 6.8 1.6v-30.9zm-23.1-114.7v122.7c2.3.6 4.5 1.2 6.8 1.7V493.4c-2.3-.6-4.5-1.1-6.8-1.7v17.5zm104.4-160.3c-2.3-.3-4.5-.6-6.8-1v34.2c2.3.3 4.5.7 6.8 1v-34.2zm25.7-181.7c2.3.1 4.5.3 6.8.4v-39.9c-2.3-.1-4.5-.2-6.8-.3v39.8zm-25.7-54.4V72.2c-2.3-.1-4.5-.2-6.8-.2v71c2.3.2 4.5.3 6.8.5v-30.7zm25.7 607.6c2.3.3 4.5.6 6.8.9v-24.2c-2.3-.3-4.5-.6-6.8-.9v24.2zm-16.2-6.7v23.6c2.3.3 4.5.7 6.8 1v-41.1c-2.3-.3-4.5-.7-6.8-1v17.5zm0-109.5v79.2c2.3.4 4.5.7 6.8 1V585c-2.3-.4-4.5-.7-6.8-1.1v20.3zM1219.2 542v128.4c2.3.6 4.5 1.2 6.8 1.7V523c-2.3-.6-4.5-1.2-6.8-1.8V542zm162.6-166.1v46.5c2.3.3 4.5.5 6.8.8v-71.6c-2.3-.2-4.5-.5-6.8-.7v25zm-123.3-69.6V246c-2.3-.3-4.5-.7-6.8-1.1v72.8c2.3.4 4.5.9 6.8 1.3v-12.7zm123.3-99.4v52.3c2.3.2 4.5.4 6.8.5v-80.6c-2.3-.1-4.5-.3-6.8-.4v28.2zm-16.3 25.7c2.3.2 4.5.4 6.8.6v-38.4c-2.3-.2-4.5-.3-6.8-.5v38.3zm-25.7 376.2c-2.3-.4-4.5-.8-6.8-1.2v74.5c2.3.4 4.5.8 6.8 1.2v-74.5zm-71.9-25.8c2.3.5 4.5 1.1 6.8 1.6v-28.3c-2.3-.5-4.5-1.1-6.8-1.6V583zm32.6-258.1v95c2.3.4 4.5.9 6.8 1.3V308.7c-2.3-.3-4.5-.7-6.8-1v17.2zm81.3-28.7v41.3c2.3.2 4.5.5 6.8.7v-68c-2.3-.2-4.5-.4-6.8-.6v26.6zm-65.1-20.2v40.8c2.3.3 4.5.7 6.8 1v-67.2c-2.3-.3-4.5-.5-6.8-.8V276zm-32.5-50.6v41.4c2.3.3 4.5.7 6.8 1v-68.3c-2.3-.3-4.5-.5-6.8-.8v26.7zm55.6-13.9v-66.6c-2.3-.1-4.5-.3-6.8-.5v71.9c2.3.2 4.5.4 6.8.7v-5.5zm107 445.8V683c2.3.1 4.5.2 6.8.4v-31.3c-2.3-.1-4.5-.2-6.8-.4v5.6zm-32.6-6.4v25.9c2.3.2 4.5.4 6.8.6v-35.3c-2.3-.2-4.5-.4-6.8-.6v9.4zm0-197.6V508c2.3.2 4.5.4 6.8.6v-61.2c-2.3-.2-4.5-.4-6.8-.6v6.5zm113.9-105.7v79.3c2.3-.1 4.5-.2 6.8-.3V340c-2.3.1-4.5.2-6.8.3v7.3zM1463 131.9v40.7c2.3 0 4.5.1 6.8.1V132c-2.3-.1-4.5-.1-6.8-.1zm6.8 40.8v-.1zm25.8-46.1v84.9h6.8V99.4h-6.8v27.2zm-48.8-.2c2.3 0 4.5.1 6.8.1V84.8c-2.3 0-4.5-.1-6.8-.1v41.7zm97.5-30.4c2.3 0 4.5-.1 6.8-.1V53.6c-2.3 0-4.5.1-6.8.1V96zm-16.2-1.5c2.3 0 4.5-.1 6.8-.1V52h-6.8v42.5zM1469.8 51h-6.8v42.5c2.3 0 4.5 0 6.8.1V51zm-55.6 46.7c2.3.1 4.5.1 6.8.2V55.7c-2.3 0-4.5-.1-6.8-.1v42.1zm-32.4-11c2.3.1 4.5.1 6.8.2V45l-6.8-.1v41.8zm130-52.4v42.9h6.8V.6h-6.8v33.7zm16.3 671.3v40.7c2.3-.1 4.5-.2 6.8-.3v-49.6c-2.3.1-4.5.2-6.8.3v8.9zm-81.3-331.1v71.2c2.3.1 4.5.2 6.8.3v-98.4c-2.3-.1-4.5-.2-6.8-.3v27.2zm81.3-158.3V269c2.3-.1 4.5-.1 6.8-.2v-81.2c-2.3.1-4.5.1-6.8.2v28.4zm-32.5-171.5v21.7h6.8V6.8h-6.8v37.9zm-65.1 538.9v84.9c2.3.2 4.5.3 6.8.5V563.2c-2.3-.2-4.5-.3-6.8-.5v20.9zm48.8-319.6v69.1c2.3 0 4.5.1 6.8.1v-83.9c-2.3 0-4.5 0-6.8-.1V264zm32.5-1.5v42.9c2.3 0 4.5-.1 6.8-.1v-70.5c-2.3 0-4.5.1-6.8.1v27.6zm-42-20.6v-67.7c-2.3 0-4.5-.1-6.8-.1v73.3c2.3.1 4.5.1 6.8.1v-5.6zm-55.6-36V250c2.3.1 4.5.3 6.8.4v-72.6c-2.3-.1-4.5-.2-6.8-.3v28.4zm-16.2-28.6v44.8c2.3.1 4.5.3 6.8.4v-73.6c-2.3-.1-4.5-.2-6.8-.3v28.7zm178.8 557.3c2.3-.2 4.5-.5 6.8-.8v-23.7c-2.3.3-4.5.5-6.8.8v23.7zm48.8-170.1c2.3-.4 4.5-.9 6.8-1.4v-29.4c-2.3.5-4.5.9-6.8 1.4v29.4zm81.3-28.2v32.6c2.3-.8 4.5-1.6 6.8-2.4v-51.7c-2.3.8-4.5 1.6-6.8 2.3v19.2zm-32.5-3.2c2.3-.6 4.5-1.3 6.8-1.9v-29.8c-2.3.6-4.5 1.3-6.8 1.9v29.8zm-113.9-40.9c2.3-.2 4.5-.4 6.8-.7v-32c-2.3.2-4.5.4-6.8.6v32.1zm81.4-107.3c2.3-.4 4.5-.9 6.8-1.3v-34c-2.3.4-4.5.8-6.8 1.3v34zm0-193.6c2.3-.2 4.5-.5 6.8-.8V152c-2.3.2-4.5.4-6.8.6v38.7zm-16.3-33.7c2.3-.2 4.5-.4 6.8-.6v-39.6c-2.3.1-4.5.3-6.8.4v39.8zm-65.1-12.1c2.3-.1 4.5-.2 6.8-.3v-41c-2.3.1-4.5.1-6.8.2v41.1zm48.8-38c2.3-.1 4.5-.2 6.8-.3V66.1c-2.3.1-4.5.1-6.8.2v41.2zm-32.5-6.8c2.3-.1 4.5-.1 6.8-.2V58.7c-2.3 0-4.5.1-6.8.1v41.9zm81.3-3.8v39.4c2.3-.2 4.5-.4 6.8-.6v-70c-2.3.1-4.5.2-6.8.3v30.9zm16.3-.2c2.3-.2 4.5-.3 6.8-.5V56.6c-2.3.1-4.5.2-6.8.3v39.8zm-130.1 346.7v77.9c2.3-.2 4.5-.3 6.8-.5v-80.3c-2.3.2-4.5.3-6.8.5v2.4zm146.4 37.9c2.3-.7 4.5-1.4 6.8-2.1v-30.9c-2.3.7-4.5 1.4-6.8 2v31zm16.2 1c2.3-.7 4.5-1.5 6.8-2.3v-15.3c-2.3.8-4.5 1.5-6.8 2.3v15.3zm-65-45.8v28.8c2.3-.5 4.5-1 6.8-1.5v-32c-2.3.5-4.5 1-6.8 1.4v3.3zm-32.6-71v80c2.3-.4 4.5-.7 6.8-1.1V339.5c-2.3.3-4.5.6-6.8.9v25.1zm-16.2-113.2v50.8c2.3-.2 4.5-.5 6.8-.7v-78c-2.3.2-4.5.4-6.8.6v27.3zm97.6 456.2c2.3-.6 4.5-1.3 6.8-1.9v-4.4c-2.3.7-4.5 1.3-6.8 2v4.3zm-16.3-28.9c2.3-.6 4.5-1.2 6.8-1.8v-4.5c-2.3.6-4.5 1.3-6.8 1.9v4.4zm-97.6-82.4v67.1c2.3-.3 4.5-.5 6.8-.8v-78.1c-2.3.3-4.5.6-6.8.9v10.9zM1690.7 310c2.3-.5 4.5-1.1 6.8-1.6v-34.7c-2.3.5-4.5 1-6.8 1.5V310zm-48.8-19.2v40.6c2.3-.4 4.5-.8 6.8-1.2v-66.5c-2.3.3-4.5.7-6.8 1v26.1zm-32.6-77.3v43.3c2.3-.2 4.5-.5 6.8-.7V185c-2.3.2-4.5.4-6.8.6v27.9zm-9.5-37.3s.1 0 0 0v-39.8c-2.3.1-4.5.2-6.8.4v73.7c2.3-.2 4.5-.4 6.8-.5v-33.8zm-55.5-17.4v165.3c2.3-.1 4.5-.2 6.8-.4V129c-2.3.1-4.5.1-6.8.2v29.6zm218.2-50.5c-2.3.3-4.5.6-6.8 1V145c2.3-.4 4.5-.8 6.8-1.3v-35.4zm-23.1 331v46.2c2.3-.9 4.5-1.8 6.8-2.7V431c-2.3.9-4.5 1.8-6.8 2.6v5.7zm0-148.7c2.3-.7 4.5-1.3 6.8-2v-16.9c-2.3.7-4.5 1.3-6.8 1.9v17zm0-63.6c2.3-.6 4.5-1.1 6.8-1.7v-34.8c-2.3.5-4.5 1-6.8 1.5v35zm97.6-97.1v31.4c2.3-.7 4.5-1.4 6.8-2.1v-53.6c-2.3.5-4.5 1-6.8 1.5v22.8zm16.3 8.1v41.8c2.3-.8 4.5-1.7 6.8-2.5v-63.1c-2.3.6-4.5 1.2-6.8 1.7V138zm16.3-25v51c2.3-.8 4.5-1.7 6.8-2.5v-50.3c-2.3.6-4.6 1.2-6.8 1.8zm-130.2 545.2c2.3-.9 4.5-1.7 6.8-2.6v-26.2c-2.3.9-4.5 1.8-6.8 2.7v26.1zm-16.2-328.6c2.3-.7 4.5-1.3 6.8-2v-33.4c-2.3.6-4.5 1.3-6.8 1.9v33.5zm48.8-16c2.3-.8 4.5-1.7 6.8-2.6v-32.2c-2.3.8-4.5 1.6-6.8 2.4v32.4zm32.5-36.1c2.3-.9 4.5-1.8 6.8-2.8v-5.6c-2.3.9-4.5 1.8-6.8 2.7v5.7zm0-12.1c2.3-.9 4.5-1.8 6.8-2.7v-5.6c-2.3.9-4.5 1.8-6.8 2.6v5.7zM130.1 390.8c2.3-1 4.5-2 6.8-3v-27.9c-2.3 1-4.5 2-6.8 3v27.9zm16.3 93.4c2.3-.9 4.5-1.8 6.8-2.7v-30c-2.3.9-4.5 1.8-6.8 2.7v30zm16.2 3.6c2.3-.8 4.5-1.6 6.8-2.4V455c-2.3.8-4.5 1.6-6.8 2.5v30.3zm0-68.1c2.3-.9 4.5-1.7 6.8-2.5v-28.8c-2.3.8-4.5 1.7-6.8 2.6v28.7zm0 174.1c2.3-.7 4.5-1.4 6.8-2.1v-32.6c-2.3.7-4.5 1.5-6.8 2.2v32.5zm0-46.5c2.3-.8 4.5-1.5 6.8-2.3v-31.6c-2.3.8-4.5 1.6-6.8 2.4v31.5zm162.6-240.2v100.7c2.3-.2 4.5-.5 6.8-.7V296c-2.3.2-4.5.4-6.8.7v10.4zm-81.3 26.7v50.3c2.3-.5 4.5-1.1 6.8-1.6v-54.7c-2.3.5-4.5 1-6.8 1.6v4.4zm81.3 108.7v226.4c2.3-.2 4.5-.3 6.8-.4V430.6c-2.3.2-4.5.4-6.8.7v11.2zm-16.3 171V650c2.3-.2 4.5-.4 6.8-.6v-50.1c-2.3.2-4.5.4-6.8.7v13.5zm-32.5 15.3v134.4c2.3-.2 4.5-.4 6.8-.5V606.3c-2.3.3-4.5.6-6.8.9v21.6zm16.3 14.3c2.3-.2 4.5-.5 6.8-.7v-36.2c-2.3.2-4.5.5-6.8.8v36.1zm-65.1 13.7c2.3-.4 4.5-.8 6.8-1.2v-35.4c-2.3.4-4.5.9-6.8 1.3v35.3zm-32.5-.4v48.7c2.3-.4 4.5-.9 6.8-1.3v-76.7c-2.3.5-4.5 1.1-6.8 1.6v27.7zm16.3 7.2c2.3-.5 4.5-.9 6.8-1.3V627c-2.3.5-4.5 1-6.8 1.4v35.2zm48.7-366.4v47.5c2.3-.5 4.5-.9 6.8-1.4v-53.7c-2.3.4-4.5.9-6.8 1.4v6.2zm-16.2 149.5v98.5c2.3-.5 4.5-.9 6.8-1.3V424.6c-2.3.5-4.5 1-6.8 1.5v20.6zm65 78.1v72.4c2.3-.2 4.5-.4 6.8-.7v-93c-2.3.2-4.5.5-6.8.8v20.5zm0-34.8c2.3-.3 4.5-.5 6.8-.8v-32.3c-2.3.3-4.5.5-6.8.8V490zm39.3-1.5v-32.4c-2.3.2-4.5.3-6.8.5v56.3c2.3-.2 4.5-.3 6.8-.5v-23.9zM195.1 590.1c2.3-.6 4.5-1.2 6.8-1.7v-33.2c-2.3.6-4.5 1.2-6.8 1.9v33zm65 73.7c2.3-.3 4.5-.6 6.8-.9v-36.2c-2.3.3-4.5.7-6.8 1v36.1zm-32.5-306.5v53.4c2.3-.6 4.5-1.2 6.8-1.7v-78.2c-2.3.6-4.5 1.2-6.8 1.8v24.7zm32.5 35c2.3-.5 4.5-.9 6.8-1.4v-29.1c-2.3.4-4.5.9-6.8 1.4v29.1zm-48.7 43.8c2.3-.6 4.5-1.3 6.8-1.9v-29.8c-2.3.6-4.5 1.3-6.8 1.9v29.8zm136.8 137.2v-49.7c-2.3.1-4.5.3-6.8.5v59.6c2.3-.1 4.5-.3 6.8-.4v-10zm123.3-228.2c2.3.2 4.5.4 6.8.6v-27.9c-2.3-.2-4.5-.4-6.8-.6v27.9zm-48.8 73.6c2.3.1 4.5.1 6.8.2v-30.4c-2.3-.1-4.5-.2-6.8-.2v30.4zm32.5 12.6c2.3.2 4.5.3 6.8.5V401c-2.3-.2-4.5-.3-6.8-.5v30.8zm16.3.4c2.3.2 4.5.4 6.8.6v-30.7c-2.3-.2-4.5-.4-6.8-.6v30.7zm-81.3-12.5v37.7c2.3 0 4.5 0 6.8-.1v-39.2c-2.3 0-4.5 0-6.8.1v1.5zM536.5 477c2.3.3 4.5.7 6.8 1v-31.5c-2.3-.4-4.5-.7-6.8-1.1V477zm-48.7 158.7c2.3.2 4.5.3 6.8.5v-36.1c-2.3-.2-4.5-.4-6.8-.6v36.2zm32.5-34.4v103.2c2.3.2 4.5.4 6.8.6V600.4c-2.3-.3-4.5-.5-6.8-.8v1.7zm-146.4 49.2c2.3-.1 4.5-.1 6.8-.1v-36.9c-2.3 0-4.5.1-6.8.2v36.8zm32.6 7.2c2.3 0 4.5 0 6.8.1v-37.1c-2.3 0-4.5 0-6.8-.1v37.1zm-16.3-314.9v50.3c2.3 0 4.5 0 6.8-.1v-70.5c-2.3 0-4.5 0-6.8.1v20.2zm97.6 45.5v30.3c2.3.2 4.5.5 6.8.7V375c-2.3-.3-4.5-.5-6.8-.8v14.1zm0 67v63.5c2.3.2 4.5.4 6.8.7v-86c-2.3-.2-4.5-.5-6.8-.7v22.5zM406.5 517c2.3 0 4.5 0 6.8.1v-33.3c-2.3 0-4.5-.1-6.8-.1V517zm97.5-25.4v93.2c2.3.2 4.5.5 6.8.7V469.2c-2.3-.3-4.5-.6-6.8-.8v23.2zm-32.5 39v85.6c2.3.1 4.5.3 6.8.5V507.8c-2.3-.2-4.5-.4-6.8-.6v23.4zm-48.8 68.8v77.9c2.3 0 4.5.1 6.8.1v-90c-2.3-.1-4.5-.1-6.8-.2v12.2zm-16.2-283.7c2.3 0 4.5 0 6.8.1v-27c-2.3 0-4.5-.1-6.8-.1v27zM439 560.9c2.3.1 4.5.2 6.8.3v-34.5c-2.3-.1-4.5-.2-6.8-.3v34.5zm81.3-46.5v74.3c2.3.3 4.5.5 6.8.8v-82.8c-2.3-.3-4.5-.6-6.8-.9v8.6zm32.4-203v244c2.3.3 4.5.7 6.8 1v-249c-2.3-.4-4.5-.8-6.8-1.2v5.2zm71.7 28.6v-12.4c-2.3-.5-4.5-1.1-6.8-1.6v284.2c2.3.4 4.5.8 6.8 1.2V340zm58.3 235.3v61.4c2.3.5 4.5 1 6.8 1.4V567c-2.3-.6-4.5-1.1-6.8-1.6v9.9zm16.3 29.6c2.3.5 4.5 1.1 6.8 1.6v-32.2c-2.3-.6-4.5-1.1-6.8-1.7v32.3zm0-278.3V410c2.3.7 4.5 1.3 6.8 2V309.3c-2.3-.6-4.5-1.3-6.8-1.9v19.2zm-16.3 124.2V551c2.3.6 4.5 1.1 6.8 1.7V443c-2.3-.6-4.5-1.3-6.8-1.9v9.7zm-32.5 1.9v113.5c2.3.5 4.5 1 6.8 1.5V439.4c-2.3-.6-4.5-1.2-6.8-1.7v15zm-48.8 8.7v230.2c2.3.3 4.5.6 6.8.9V440.8c-2.3-.5-4.5-1-6.8-1.5v22.1zm97.6 11.4v64.3c2.3.6 4.5 1.2 6.8 1.8v-82.5c-2.3-.6-4.5-1.3-6.8-1.9v18.3zM585.1 627.2v61.7c2.3.3 4.5.6 6.8.9v-86.7c-2.3-.4-4.5-.7-6.8-1.1v25.2zm130.2-269v48.3c2.3.7 4.5 1.3 6.8 2v-67.9c-2.3-.7-4.5-1.3-6.8-2v19.6zm-81.4 9.5v73.8c2.3.5 4.5 1.1 6.8 1.6v-91.3c-2.3-.6-4.5-1.1-6.8-1.7v17.6zm81.4 158.9v85.3c2.3.5 4.5 1.1 6.8 1.6v-107c-2.3-.6-4.5-1.3-6.8-1.9v22zm-81.4 1.7v143.4c2.3.4 4.5.7 6.8 1.1V506.9c-2.3-.5-4.5-1-6.8-1.5v22.9zm-9.4 83.3h-.1zm253.3-81.8v186.7l6.8 1.7V522.5c-2.3-.8-4.5-1.6-6.8-2.4v9.7zm-16.2-50.2l6.8 2.4v-28.4c-2.3-.8-4.5-1.6-6.8-2.4v28.4zM747.7 342.5V370c2.3.7 4.5 1.4 6.8 2.1v-32.8c-2.3-.7-4.5-1.4-6.8-2.1v5.3zm32.5-2v27.3c2.3.7 4.5 1.5 6.8 2.2v-31.4c-2.3-.7-4.5-1.5-6.8-2.2v4.1zm113.9 11.7v203c2.3.8 4.5 1.5 6.8 2.3V339.3c-2.3-.8-4.5-1.5-6.8-2.3v15.2zm-16.3-17.5v27.7c2.3.8 4.5 1.6 6.8 2.4v-33.1c-2.3-.8-4.5-1.5-6.8-2.3v5.3zM731.5 537.2V591c2.3.6 4.5 1.2 6.8 1.8V523c-2.3-.7-4.5-1.3-6.8-2v16.2zm16.2-4.4v115.8c2.3.5 4.5 1.1 6.8 1.6V513c-2.3-.7-4.5-1.4-6.8-2v21.8zm16.3.2v64.4c2.3.6 4.5 1.2 6.8 1.9v-64.5c-2.3-.7-4.5-1.4-6.8-2v.2zm0-50.9v40c2.3.7 4.5 1.4 6.8 2.1v-58.5c-2.3-.7-4.5-1.4-6.8-2.2v18.6zm48.8-174.5v166c2.3.8 4.5 1.5 6.8 2.3V308.4c-2.3-.7-4.5-1.5-6.8-2.2v1.4zm-16.3 5.3v231.9c2.3.7 4.5 1.4 6.8 2.1V306.2c-2.3-.7-4.5-1.4-6.8-2.1v8.8zm97.6 284.5v50l6.8 2v-70.5l-6.8-2.3zm-48.8-72.1V676c2.3.6 4.5 1.2 6.8 1.8V522c-2.3-.8-4.5-1.5-6.8-2.3v5.6zm-32.5 11.3v103.5c2.3.6 4.5 1.2 6.8 1.9V517.6c-2.3-.7-4.5-1.5-6.8-2.2v21.2zm32.5-107.3v87.1c2.3.8 4.5 1.5 6.8 2.3V411.4c-2.3-.8-4.5-1.6-6.8-2.4v20.3zm16.3-55.5V442c2.3.8 4.5 1.6 6.8 2.4v-73.6c-2.3-.8-4.5-1.6-6.8-2.4v5.4zm-130.1 61.5v29.2c2.3.7 4.5 1.4 6.8 2v-49.9c-2.3-.7-4.5-1.4-6.8-2.1v20.8zm195 230.8c2.3.7 4.5 1.3 6.8 2v-28.5l-6.8-2.1v28.6zm16.3-4.1l6.8 2.1v-28.2l-6.8-2.1zm32.5-134.1v153l6.8 2V515.3c-2.3-.8-4.5-1.6-6.8-2.4v15zm-16.2-18.3V651c2.3.7 4.5 1.4 6.8 2.1V501.8c-2.3-.8-4.5-1.6-6.8-2.5v10.3zm-48.8-6c2.3.8 4.5 1.6 6.8 2.4v-28.3c-2.3-.8-4.5-1.6-6.8-2.5v28.4zm81.3-3.7c2.3.8 4.5 1.6 6.8 2.4v-28.2c-2.3-.8-4.5-1.6-6.8-2.4v28.2zm48.8-3.2c2.3.8 4.5 1.6 6.8 2.4v-28.4c-2.3-.8-4.5-1.6-6.8-2.4v28.4zm-65.1-76.1c2.3.8 4.5 1.6 6.8 2.4v-28.5l-6.8-2.4v28.5zm48.8-.6v69.7l6.8 2.4v-96.3c-2.3-.8-4.5-1.5-6.8-2.3V420zm-16.2-61v127.1c2.3.8 4.5 1.6 6.8 2.4V359.9l-6.8-2.2v1.3zm-16.3 25.3c2.3.8 4.5 1.6 6.8 2.3v-28.8l-6.8-2.3v28.8zm48.8-16.7v29.3c2.3.8 4.5 1.5 6.8 2.3v-46.9l-6.8-2.1v17.4zm-32.5 293.8v27.1c2.3.7 4.5 1.3 6.8 2v-46.6l-6.8-2.2v19.7zm16.2-77.5v92.5c2.3.7 4.5 1.4 6.8 2V573.2c-2.3-.8-4.5-1.6-6.8-2.3v13zm-113.8-31.3v74.1l6.8 2.1v-94.3c-2.3-.8-4.5-1.6-6.8-2.4v20.5zm97.6-41.4v89.4c2.3.8 4.5 1.5 6.8 2.3V493.2l-6.8-2.4v20.4zM959.1 412v76.7c2.3.8 4.5 1.6 6.8 2.5V394l-6.8-2.4V412zm-48.8-77.9v48l6.8 2.4v-68.2l-6.8-2.2zM1040.4 568v70.7c2.3.7 4.5 1.5 6.8 2.2V562c-2.3-.8-4.5-1.6-6.8-2.4v8.4zm-48.8-4.1V635c2.3.7 4.5 1.5 6.8 2.2V549l-6.8-2.4v17.3zm65.1-145v186.5c2.3.8 4.5 1.5 6.8 2.2V415.4c-2.3-.8-4.5-1.5-6.8-2.3v5.8zm-113.9-38.8v132.6l6.8 2.4V377.6c-2.3-.8-4.5-1.6-6.8-2.4v4.9zM1056.7 659c2.3.7 4.5 1.4 6.8 2.1v-26.7c-2.3-.7-4.5-1.5-6.8-2.2V659zm130-7.7V713c2.3.6 4.5 1.1 6.8 1.7v-78.3c-2.3-.6-4.5-1.3-6.8-1.9v16.8zm-97.6-14.7V673c2.3.7 4.5 1.3 6.8 2v-57c-2.3-.7-4.5-1.5-6.8-2.2v20.8zm97.6-64.3c2.3.7 4.5 1.3 6.8 2v-28.1c-2.3-.7-4.5-1.3-6.8-2v28.1zM1072.8 556c2.3.8 4.5 1.5 6.8 2.3v-27.9c-2.3-.8-4.5-1.5-6.8-2.3V556zm65.1-23.8v28c2.3.7 4.5 1.4 6.8 2.1v-39c-2.3-.7-4.5-1.4-6.8-2.2v11.1zm81.3-16.6c2.3.6 4.5 1.2 6.8 1.8v-29.6c-2.3-.6-4.5-1.2-6.8-1.8v29.6zm-48.8-112.7V574c2.3.7 4.5 1.4 6.8 2V394.4c-2.3-.6-4.5-1.2-6.8-1.8v10.3zm16.3 15.9c2.3.6 4.5 1.2 6.8 1.8v-31.2c-2.3-.6-4.5-1.2-6.8-1.8v31.2zm-65.1-6.7c2.3.7 4.5 1.4 6.8 2.1v-30.3c-2.3-.7-4.5-1.3-6.8-2v30.2zm88.1 268.7v-25.6c-2.3-.6-4.5-1.2-6.8-1.8v59.5c2.3.6 4.5 1.1 6.8 1.7v-33.8zM1072.8 598v83.5c2.3.7 4.5 1.3 6.8 2v-103c-2.3-.8-4.5-1.5-6.8-2.3V598zm0-151.1v69.8c2.3.8 4.5 1.6 6.8 2.3v-98.1c-2.3-.7-4.5-1.5-6.8-2.2v28.2zm32.6-68.1v115.3c2.3.7 4.5 1.5 6.8 2.2V358.8c-2.3-.7-4.5-1.3-6.8-2v22zm65 231.6v89c2.3.6 4.5 1.2 6.8 1.8v-88.9c-2.3-.6-4.5-1.3-6.8-1.9zm39.3 29.7zm0-46.1v-46.3c-2.3-.6-4.5-1.3-6.8-1.9v92.5c2.3.6 4.5 1.2 6.8 1.8V594zm0-55zm0-41.9v-29.9c-2.3-.6-4.5-1.2-6.8-1.8v71.8c2.3.6 4.5 1.3 6.8 1.9v-42zm-23-2.3v29.1c2.3.7 4.5 1.3 6.8 2v-50.4c-2.3-.6-4.5-1.3-6.8-1.9v21.2zm-48.8-79.9v77.3c2.3.7 4.5 1.4 6.8 2.1v-92.6c-2.3-.7-4.5-1.3-6.8-2v15.2zm146.3 290.7c2.3.5 4.5.9 6.8 1.4v-24.7c-2.3-.5-4.5-.9-6.8-1.4v24.7zm16.3-43.4v44.9c2.3.4 4.5.9 6.8 1.3V654c-2.3-.5-4.5-.9-6.8-1.4v9.6zm16.2-70c2.3.4 4.5.9 6.8 1.3v-28.4c-2.3-.4-4.5-.9-6.8-1.3v28.4zm16.3-54.4c2.3.4 4.5.8 6.8 1.2v-30.1c-2.3-.4-4.5-.8-6.8-1.2v30.1zm32.5-120.2v86.9c2.3.3 4.5.6 6.8 1v-88.1c-2.3-.3-4.5-.6-6.8-.9v1.1zm-32.5-15v83.2c2.3.4 4.5.8 6.8 1.2v-96.3c-2.3-.3-4.5-.7-6.8-1v12.9zm32.5 148.2v139.3c2.3.3 4.5.6 6.8.9V530.3c-2.3-.3-4.5-.6-6.8-1v21.5zm-113.8-90.9v52c2.3.6 4.5 1.1 6.8 1.7V439c-2.3-.5-4.5-1-6.8-1.6v22.5zm130.1 12.8v31.6c2.3.3 4.5.6 6.8.8v-54.8c-2.3-.3-4.5-.5-6.8-.8v23.2zm-65.1-109.6v57.4c2.3.4 4.5.8 6.8 1.2v-82.3c-2.3-.3-4.5-.7-6.8-1v24.7zm65.1 326.7v25.3c2.3.3 4.5.5 6.8.8v-43.4c-2.3-.3-4.5-.6-6.8-.8v18.1zM1267.9 598v96.6c2.3.5 4.5 1 6.8 1.5V586.7c-2.3-.5-4.5-1.1-6.8-1.6V598zm32.6-104.5v54.1c2.3.5 4.5.9 6.8 1.4v-73.7c-2.3-.4-4.5-.9-6.8-1.3v19.5zm81.3 29.2v35.5c2.3.3 4.5.6 6.8.9v-46.4c-2.3-.3-4.5-.6-6.8-.8v10.8zm-65.1-49.3v33c2.3.4 4.5.9 6.8 1.3v-55.8c-2.3-.4-4.5-.8-6.8-1.2v22.7zm-32.5-4v30.7c2.3.5 4.5 1 6.8 1.5v-53.3c-2.3-.5-4.5-.9-6.8-1.4v22.5zm211.4 119.5v28.2c2.3 0 4.5 0 6.8-.1v-33.8c-2.3 0-4.5.1-6.8.1v5.6zm48.7-162.2c2.3-.1 4.5-.3 6.8-.5v-34c-2.3.2-4.5.3-6.8.4v34.1zm-32.5-19.6c2.3-.1 4.5-.1 6.8-.2v-34.7c-2.3.1-4.5.1-6.8.2v34.7zm16.3 287.7c2.3-.1 4.5-.2 6.8-.3v-25.3c-2.3.1-4.5.2-6.8.4v25.2zm-48.8-110.5c2.3 0 4.5.1 6.8.1v-29.3c-2.3 0-4.5 0-6.8-.1v29.3zm-9.5 4zm0-42.3v-30.5c-2.3-.1-4.5-.1-6.8-.2v72.8c2.3.1 4.5.2 6.8.2V546zm-55.6 5.7v36.1c2.3.2 4.5.4 6.8.6v-57.7c-2.3-.2-4.5-.4-6.8-.6v21.6zm32.6-36.7v72.7c2.3.1 4.5.3 6.8.4v-84.8c-2.3-.1-4.5-.2-6.8-.4V515zm81.3-68.5v143c2.3-.1 4.5-.2 6.8-.4v-155c-2.3.1-4.5.2-6.8.3v12.1zm-32.5-73.8v165.9c2.3 0 4.5 0 6.8-.1V347.1h-6.8v25.6zm-25.8 26.7v-59.2c-2.3-.1-4.5-.1-6.8-.2v169.3c2.3.1 4.5.2 6.8.2V399.4zm-55.6-37.1v71.5c2.3.2 4.5.4 6.8.6v-94.2c-2.3-.2-4.5-.3-6.8-.5v22.6zm55.6 292.2zm0-26.9v-27.8c-2.3-.1-4.5-.1-6.8-.2v54.7c2.3.1 4.5.2 6.8.2v-26.9zm9.5-141.7v53.5c2.3 0 4.5.1 6.8.1V469c-2.3 0-4.5 0-6.8-.1v17zm32.5 25.5c2.3-.1 4.5-.1 6.8-.2v-31.6c-2.3.1-4.5.1-6.8.2v31.6zm-42-1.8zm-71.8-69.5v55.3c2.3.2 4.5.5 6.8.7v-79.3c-2.3-.2-4.5-.4-6.8-.7v24zm227.6 182.4c2.3-.4 4.5-.9 6.8-1.4v-27.6c-2.3.5-4.5.9-6.8 1.4v27.6zm81.3-20.1c2.3-.8 4.5-1.5 6.8-2.3v-27.7c-2.3.8-4.5 1.6-6.8 2.4v27.6zm-25.7-25.8V548c-2.3.7-4.5 1.3-6.8 1.9v51.5c2.3-.6 4.5-1.3 6.8-1.9v-22.9zm-120.7-1.8v60.8c2.3-.2 4.5-.4 6.8-.7v-70.3c-2.3.2-4.5.5-6.8.7v9.5zm65.1-46.6c2.3-.4 4.5-.9 6.8-1.4v-30.4c-2.3.5-4.5.9-6.8 1.3v30.5zm-48.8-135.6v42.7c2.3-.2 4.5-.5 6.8-.8v-42.9c-2.3.2-4.5.5-6.8.7v.3zm81.3 24c2.3-.5 4.5-1 6.8-1.6v-33c-2.3.5-4.5 1-6.8 1.5v33.1zm-113.8 221.1v90.9c2.3-.1 4.5-.3 6.8-.5v-91.5c-2.3.2-4.5.4-6.8.5v.6zm0-85.8v76.9c2.3-.2 4.5-.3 6.8-.5v-84.1c-2.3.2-4.5.4-6.8.5v7.2zm97.6 41c2.3-.5 4.5-1 6.8-1.6V563c-2.3.5-4.5 1.1-6.8 1.6v28.3zm-32.6-54.3v106.8c2.3-.4 4.5-.8 6.8-1.2V515.7c-2.3.4-4.5.8-6.8 1.2v21.7zm-32.5-30.4V581c2.3-.3 4.5-.6 6.8-.9v-84.8c-2.3.3-4.5.6-6.8.8v12.1zm48.8-143.1v78.5c2.3-.4 4.5-.8 6.8-1.3V339.1c-2.3.4-4.5.7-6.8 1.1v24.9zm-32.5.5v157.1c2.3-.3 4.5-.7 6.8-1V339.6c-2.3.3-4.5.5-6.8.8v25.2zm-32.6 25.3v64.3c2.3-.2 4.5-.4 6.8-.6v-89.2c-2.3.2-4.5.4-6.8.6v24.9zm120.7 232.9c-2.3.7-4.5 1.3-6.8 1.9v26.4c2.3-.6 4.5-1.3 6.8-1.9v-26.4zm9.5 14.6c2.3-.7 4.5-1.4 6.8-2.1v-26.8c-2.3.7-4.5 1.4-6.8 2.1v26.8zm-81.4-175.5v31.6c2.3-.4 4.5-.8 6.8-1.2v-41.9c-2.3.4-4.5.8-6.8 1.1v10.4zm153.2-88.7c-2.3.9-4.5 1.8-6.8 2.6V408c2.3-.9 4.5-1.8 6.8-2.7v-31.1zm-23.1 170.7c2.3-.9 4.5-1.8 6.8-2.8v-28.7c-2.3.9-4.5 1.9-6.8 2.8v28.7zm23.1-83.2c-2.3 1-4.5 2-6.8 2.9v29.6c2.3-1 4.5-2 6.8-3v-29.5zm0-15.1v-30.3c-2.3.9-4.5 1.9-6.8 2.8v32.3c2.3-.9 4.5-1.9 6.8-2.9v-1.9zm0 224v-25.9c-2.3 1-4.5 1.9-6.8 2.8v60.2c2.3-.9 4.5-1.7 6.8-2.6v-34.5z" clip-rule="evenodd" opacity=".75"/></g></svg>