<svg xmlns="http://www.w3.org/2000/svg" xmlns:xlink="http://www.w3.org/1999/xlink" viewBox="0 0 185 32"><defs><linearGradient id="b" x1="67.648%" x2="85.324%" y1="59.302%" y2="73.454%"><stop offset="0%" stop-color="#ADD037"/><stop offset="100%" stop-color="#B9D532"/></linearGradient><linearGradient id="c" x1="50%" x2="50%" y1="0%" y2="100%"><stop offset="0%" stop-color="#DEEBA5"/><stop offset="100%" stop-color="#A6CE3A"/></linearGradient><linearGradient id="d" x1="50%" x2="50%" y1="0%" y2="100%"><stop offset="0%" stop-color="#F0F5D3"/><stop offset="100%" stop-color="#C9DE74"/></linearGradient><radialGradient id="a" cx="50%" cy="51.193%" r="50.832%" fx="50%" fy="51.193%" gradientTransform="scale(.99997 1) rotate(63.187 .5 .512)"><stop offset="0%" stop-color="#A6CE3B"/><stop offset="86.056%" stop-color="#A9D040"/><stop offset="100%" stop-color="#BDDA74"/></radialGradient><g id="dot"><path fill="url(#a)" d="M0 5.27a5.214 5.214 0 0 0 4.647 5.181h1.125a5.215 5.215 0 0 0 4.62-4.619v-1.12A5.212 5.212 0 0 0 5.21.06 5.193 5.193 0 0 0 0 5.27"/><path fill="url(#b)" d="M9.196 1.958c.14.443.138.915.02 1.415.12.361.181.754.181 1.175A4.178 4.178 0 0 1 5.21 8.735a4.389 4.389 0 0 1-1.656-.332c-1.114.18-2.108.03-2.83-.482a5.135 5.135 0 0 0 4.456 2.53 5.212 5.212 0 0 0 5.211-5.21 5.136 5.136 0 0 0-1.18-3.283h-.015Z"/><path fill="url(#c)" d="M4.662 9.036H5.7a4.382 4.382 0 0 0 3.879-4.367A4.384 4.384 0 0 0 5.18.27h-.053C2.74.27.783 2.247.783 4.669a4.382 4.382 0 0 0 3.88 4.367Z"/><path fill="url(#d)" d="M5.06.632c-1.325.06-2.952.994-3.132 2.38-.181 1.506 2.349 1.566 3.252 1.566.904 0 3.434-.06 3.253-1.566-.18-1.416-1.807-2.32-3.132-2.38h-.15c0-.015-.008-.022-.023-.022a.172.172 0 0 0-.068.022"/></g></defs><g id="nanostring-logo"><g fill="var(--logo-color,currentColor)"><path d="M178.399 12.88c0 .399-.062.859-.216 1.257-.525 1.472-1.944 2.392-3.518 2.392-2.715 0-4.134-2.085-4.134-4.6 0-2.974 1.728-4.845 4.165-4.845 1.883 0 3.086 1.104 3.549 2.484.123.276.154.644.154 1.043v2.27Zm.34-7.36v1.932h-.063c-.647-1.073-1.943-2.208-4.35-2.208-3.24 0-6.325 2.423-6.325 6.777 0 3.558 2.468 6.256 5.955 6.256 2.16 0 3.702-.95 4.443-2.146h.062v5.213c0 3.25-2.685 4.416-5.276 4.416H.123v1.901h173.062v-.03c.216 0 .462.03.678.03 1.759 0 3.733-.399 5.091-1.533 1.327-1.135 1.975-2.913 1.975-5.888V5.49h-2.19v.03ZM138.35 2.208c0 .859-.71 1.564-1.574 1.564a1.575 1.575 0 0 1-1.573-1.564c0-.859.71-1.564 1.573-1.564.864 0 1.574.705 1.574 1.564M.123 8.985C.123 7.636.093 6.563 0 5.52h2.252l.155 2.116h.061c.68-1.196 2.314-2.392 4.628-2.392 1.944 0 4.937 1.073 4.937 5.459v7.636h-2.53v-7.391c0-2.055-.833-3.772-3.24-3.772A3.603 3.603 0 0 0 2.87 9.568c-.123.276-.185.675-.185 1.073v7.698H.154V8.985h-.03Zm29.127 2.822c-2.777-.062-5.924.398-5.924 2.882 0 1.534 1.08 2.208 2.375 2.208 1.852 0 3.024-1.042 3.425-2.146a2.29 2.29 0 0 0 .124-.736v-2.208Zm2.437 3.465c0 1.104.062 2.208.216 3.067H29.62l-.216-1.626h-.093c-.77 1.012-2.283 1.902-4.257 1.902-2.84 0-4.258-1.81-4.258-3.68 0-3.098 2.993-4.784 8.392-4.754v-.276c0-1.042-.309-2.974-3.178-2.944-1.327 0-2.684.338-3.672.951l-.586-1.564c1.142-.675 2.87-1.104 4.628-1.104 4.258 0 5.307 2.668 5.307 5.213v4.815Zm9.873-6.287c0-1.349-.03-2.422-.123-3.465h2.253l.154 2.116h.062c.678-1.196 2.314-2.392 4.628-2.392 1.943 0 4.936 1.073 4.936 5.459v7.636h-2.53v-7.391c0-2.055-.833-3.772-3.24-3.772a3.603 3.603 0 0 0-3.393 2.392c-.124.276-.185.675-.185 1.073v7.698H41.56V8.985Z"/><path d="M64.948 11.96c0 2.79 1.728 4.907 4.196 4.907 2.438 0 4.227-2.086 4.227-4.968 0-2.178-1.172-4.907-4.196-4.907-2.931.03-4.227 2.545-4.227 4.968m11.046-.123c0 4.723-3.61 6.808-6.942 6.808-3.765 0-6.696-2.545-6.696-6.593 0-4.263 3.086-6.777 6.912-6.777 4.01 0 6.726 2.668 6.726 6.562m8.732 3.68c1.11.675 2.746 1.166 4.473 1.166 2.561 0 4.073-1.258 4.073-3.036 0-1.626-1.049-2.607-3.671-3.527-3.178-1.073-5.122-2.576-5.122-5.09 0-2.791 2.499-4.846 6.294-4.846 1.944 0 3.425.43 4.258.859l-.679 1.87c-.617-.337-1.913-.858-3.672-.858-2.653 0-3.671 1.472-3.671 2.668 0 1.656 1.172 2.484 3.857 3.434 3.301 1.166 4.936 2.607 4.936 5.244 0 2.76-2.19 5.152-6.788 5.152-1.882 0-3.918-.521-4.967-1.165l.679-1.87Zm23.202-13.064V5.52h3.61V7.3h-3.641v6.9c0 1.594.494 2.484 1.913 2.484.679 0 1.11-.062 1.481-.154l.123 1.78c-.493.152-1.265.306-2.252.306-1.172 0-2.129-.368-2.746-.982-.679-.705-.987-1.84-.987-3.373V7.268h-2.16V5.49h2.16V3.16l2.499-.706Zm12.249 7.084c0-1.502-.03-2.79-.123-3.986h2.221l.124 2.545h.092c.648-1.717 2.19-2.79 3.888-2.79.247 0 .463.03.679.06v2.209c-.247-.062-.525-.062-.864-.062-1.79 0-3.055 1.227-3.394 2.975a5.8 5.8 0 0 0-.093 1.073V18.4h-2.53V9.537Zm15.335 8.802h2.53V5.52h-2.53zm12.496-9.354c0-1.349-.032-2.422-.124-3.465h2.252l.154 2.116h.062c.68-1.196 2.315-2.392 4.629-2.392 1.943 0 4.936 1.073 4.936 5.459v7.636h-2.53v-7.391c0-2.055-.833-3.772-3.24-3.772a3.603 3.603 0 0 0-3.394 2.392c-.123.276-.185.675-.185 1.073v7.698h-2.53V8.985h-.03Z"/></g><use xlink:href="#dot" href="#dot" transform="translate(81 21)"/><use xlink:href="#dot" href="#dot" transform="translate(110 21)"/><use xlink:href="#dot" href="#dot" transform="translate(132 21)"/><use xlink:href="#dot" href="#dot" transform="translate(152 21)"/><use xlink:href="#dot" href="#dot" transform="translate(164 21)"/><path fill="var(--logo-color,currentColor)" d="M182.643 29.452c.319 0 .51-.159.51-.414 0-.286-.191-.414-.51-.414h-.604v.828h.604Zm-1.114-1.019c0-.128.096-.255.255-.255h.891c.573 0 .987.287.987.797 0 .382-.223.668-.573.796l.478.573c.064.064.064.127.064.19 0 .128-.096.256-.223.256-.096 0-.16-.064-.223-.128l-.669-.796h-.51v.669a.274.274 0 0 1-.254.255.274.274 0 0 1-.255-.255v-2.102h.032Zm3.184 1.051c0-1.242-.955-2.23-2.197-2.23s-2.198 1.02-2.198 2.23.956 2.198 2.198 2.198c1.242.031 2.197-.988 2.197-2.198Zm-4.713.032c0-1.37 1.115-2.516 2.484-2.516 1.401 0 2.516 1.115 2.516 2.484v.032c0 1.37-1.115 2.484-2.516 2.484A2.488 2.488 0 0 1 180 29.516Z"/></g></svg>