<svg width="154" height="41" viewBox="0 0 154 41" fill="none" xmlns="http://www.w3.org/2000/svg"> <g clip-path="url(#clip0_290_645)"> <path fill-rule="evenodd" clip-rule="evenodd" d="M20.6189 1.70911L12.3048 23.8053L3.76893 1.70911H0L10.4757 27.4229H13.9122L24 1.70911H20.6189Z" fill="white"></path> <path fill-rule="evenodd" clip-rule="evenodd" d="M30 27.4229H33V1.70911H30V27.4229Z" fill="white"></path> <path fill-rule="evenodd" clip-rule="evenodd" d="M39 25.4193L54.6371 4.71464H39.7903V1.70911H59.3227V3.71293L43.742 24.4173H60V27.4229H39V25.4193Z" fill="white"></path> <mask id="mask0_290_645" style="mask-type:alpha" maskUnits="userSpaceOnUse" x="98" y="0" width="26" height="28"> <path d="M98.6439 0.832397H123.537V27.6833H98.6439V0.832397Z" fill="white"></path> </mask> <g mask="url(#mask0_290_645)"> <path fill-rule="evenodd" clip-rule="evenodd" d="M120.203 12.1032C120.203 10.962 119.971 9.89334 119.509 8.89872C119.045 7.90437 118.415 7.0298 117.619 6.27459C116.822 5.52008 115.878 4.92105 114.786 4.47889C113.692 4.03687 112.535 3.81599 111.313 3.81599C109.497 3.81599 107.988 4.18466 106.784 4.92105C105.58 5.65812 104.626 6.50495 103.922 7.46235C103.218 8.42043 102.718 9.35036 102.422 10.2523C102.125 11.1555 101.978 11.7717 101.978 12.1032H120.203ZM122.759 22.2136C121.462 24.1664 119.86 25.5658 117.953 26.4125C116.044 27.2596 113.942 27.6834 111.646 27.6834C109.682 27.6834 107.904 27.3519 106.312 26.6889C104.719 26.0258 103.348 25.0961 102.2 23.8988C101.051 22.7021 100.172 21.284 99.5606 19.6447C98.9493 18.0062 98.6439 16.1917 98.6439 14.2026C98.6439 12.2879 98.9582 10.52 99.5883 8.89872C100.218 7.27842 101.107 5.86966 102.255 4.67229C103.403 3.47575 104.756 2.53662 106.312 1.85463C107.868 1.1736 109.59 0.832397 111.479 0.832397C113.442 0.832397 115.174 1.1736 116.675 1.85463C118.175 2.53662 119.434 3.4388 120.453 4.56185C121.472 5.68573 122.24 6.9651 122.759 8.40161C123.277 9.83798 123.537 11.2934 123.537 12.7661V15.0868H101.978C101.978 15.7866 102.117 16.6802 102.394 17.7663C102.672 18.8532 103.181 19.9124 103.922 20.9428C104.663 21.9747 105.654 22.8586 106.895 23.595C108.136 24.3321 109.738 24.6999 111.702 24.6999C113.405 24.6999 115.054 24.2951 116.647 23.4844C118.239 22.6747 119.462 21.5697 120.314 20.1695L122.759 22.2136Z" fill="white"></path> </g> <mask id="mask1_290_645" style="mask-type:alpha" maskUnits="userSpaceOnUse" x="130" y="0" width="23" height="28"> <path d="M130.705 0.832397H152.986V27.0202H130.705V0.832397Z" fill="white"></path> </mask> <g mask="url(#mask1_290_645)"> <path fill-rule="evenodd" clip-rule="evenodd" d="M130.983 8.6777C130.983 8.19955 130.964 7.61948 130.927 6.93749C130.89 6.25619 130.862 5.56582 130.844 4.86556C130.825 4.1664 130.797 3.51201 130.76 2.90433C130.723 2.29652 130.705 1.82688 130.705 1.49543H134.039C134.075 2.45366 134.103 3.37397 134.122 4.25788C134.14 5.14193 134.186 5.7132 134.261 5.97048H134.428C135.095 4.57119 136.206 3.36518 137.762 2.35173C139.317 1.33926 141.132 0.832397 143.207 0.832397C145.207 0.832397 146.837 1.14585 148.097 1.77166C149.356 2.39844 150.347 3.21779 151.069 4.23027C151.792 5.24371 152.292 6.41264 152.57 7.73844C152.848 9.06437 152.986 10.4275 152.986 11.8271V27.0202H149.653V11.9927C149.653 10.962 149.56 9.9579 149.375 8.98154C149.189 8.00601 148.865 7.13062 148.402 6.35729C147.939 5.58395 147.291 4.96734 146.458 4.50664C145.624 4.04634 144.541 3.81585 143.207 3.81585C141.985 3.81585 140.826 4.02807 139.734 4.45114C138.641 4.87504 137.697 5.52008 136.9 6.38489C136.103 7.25081 135.474 8.33746 135.011 9.64472C134.547 10.9525 134.317 12.49 134.317 14.2579V27.0202H130.983V8.6777Z" fill="white"></path> </g> <path fill-rule="evenodd" clip-rule="evenodd" d="M71.1302 11.4759C71.195 12.3264 71.9411 12.9639 72.7967 12.8994C73.6522 12.8351 74.2932 12.0931 74.2284 11.2425C74.1636 10.3917 73.4175 9.75452 72.5619 9.81894C71.7064 9.88336 71.0654 10.6252 71.1302 11.4759Z" fill="#E02873"></path> <path fill-rule="evenodd" clip-rule="evenodd" d="M78.8697 9.52959C79.5624 8.72782 79.4704 7.5196 78.6641 6.83102C77.8578 6.14216 76.6426 6.23378 75.9499 7.03541C75.2573 7.83718 75.3494 9.04539 76.1556 9.73398C76.9619 10.4228 78.177 10.3312 78.8697 9.52959Z" fill="#E02873"></path> <path fill-rule="evenodd" clip-rule="evenodd" d="M77.9137 13.6616C78.3347 13.1744 78.2787 12.4404 77.7887 12.0218C77.2988 11.6034 76.5606 11.6591 76.1396 12.1461C75.7187 12.6332 75.7747 13.3673 76.2645 13.7858C76.7544 14.2043 77.4928 14.1487 77.9137 13.6616Z" fill="white"></path> <path fill-rule="evenodd" clip-rule="evenodd" d="M73.2149 17.7142C72.4599 17.771 71.8942 18.4258 71.9514 19.1765C72.0087 19.927 72.6671 20.4895 73.4221 20.4327C74.1771 20.3758 74.7428 19.7211 74.6854 18.9705C74.6283 18.2198 73.9698 17.6573 73.2149 17.7142Z" fill="#2BCFE0"></path> <path fill-rule="evenodd" clip-rule="evenodd" d="M85.9929 9.98494C85.4889 10.0228 85.1113 10.4599 85.1495 10.961C85.1876 11.4622 85.6272 11.8376 86.1312 11.7997C86.6352 11.7618 87.0129 11.3247 86.9746 10.8235C86.9365 10.3224 86.4969 9.94702 85.9929 9.98494Z" fill="white"></path> <path fill-rule="evenodd" clip-rule="evenodd" d="M84.2881 15.4147C83.8673 15.9018 83.9231 16.636 84.413 17.0545C84.903 17.4728 85.6413 17.4173 86.0622 16.9301C86.4831 16.443 86.427 15.709 85.9373 15.2904C85.4473 14.872 84.709 14.9275 84.2881 15.4147Z" fill="#2BCFE0"></path> <path fill-rule="evenodd" clip-rule="evenodd" d="M81.4198 15.8835C80.4051 15.0166 78.8758 15.1318 78.0041 16.1409C77.1323 17.1498 77.2482 18.6702 78.2629 19.5371C79.2776 20.4038 80.8069 20.2886 81.6787 19.2798C82.5504 18.2708 82.4345 16.7503 81.4198 15.8835Z" fill="#E02873"></path> <mask id="mask2_290_645" style="mask-type:alpha" maskUnits="userSpaceOnUse" x="65" y="0" width="27" height="41"> <path d="M65.0271 0.832397H91.9207V40.2798H65.0271V0.832397Z" fill="white"></path> </mask> <g mask="url(#mask2_290_645)"> <path fill-rule="evenodd" clip-rule="evenodd" d="M87.8922 17.8767C87.3548 19.111 86.6324 20.179 85.7251 21.0812C84.9328 21.8689 84.0138 22.516 82.9683 23.0227C83.132 22.5802 83.0171 22.0653 82.6364 21.7399C82.1465 21.3215 81.4081 21.3772 80.9873 21.8643C80.5664 22.3513 80.6223 23.0855 81.1122 23.5041C81.1808 23.5627 81.2552 23.6097 81.3321 23.6498C80.4373 23.9058 79.5039 24.0369 78.5295 24.0369C77.1212 24.0369 75.7972 23.77 74.5565 23.2358C73.3151 22.7021 72.2412 21.984 71.3338 21.0812C70.4256 20.179 69.7031 19.111 69.1668 17.8767C68.8937 17.2499 68.6908 16.6014 68.5565 15.9317C68.7296 15.9813 68.9135 16.0032 69.1034 15.9891C69.959 15.9245 70.6 15.1828 70.5352 14.332C70.4704 13.4813 69.7243 12.844 68.8687 12.9084C68.7039 12.9209 68.5474 12.9588 68.402 13.0175C68.4941 11.9537 68.7473 10.9396 69.1668 9.97617C69.7031 8.74254 70.4256 7.6747 71.3338 6.7717C72.2412 5.86966 73.3151 5.1514 74.5565 4.61694C75.7972 4.08357 77.1212 3.81599 78.5295 3.81599C79.937 3.81599 81.261 4.08357 82.5024 4.61694C83.2055 4.91995 83.8533 5.28396 84.4495 5.7051C84.1554 5.93669 83.9785 6.30481 84.009 6.70494C84.0578 7.34518 84.6195 7.82498 85.2635 7.77649C85.6463 7.74764 85.969 7.53638 86.16 7.23694C86.8653 8.03555 87.4439 8.94734 87.8922 9.97617C88.4288 11.2106 88.698 12.5271 88.698 13.9265C88.698 15.3266 88.4288 16.6432 87.8922 17.8767ZM88.5868 1.49543V5.80482H88.4756C87.512 4.25801 86.2061 3.04252 84.5583 2.15847C82.9096 1.27456 80.9743 0.832397 78.7516 0.832397C76.8625 0.832397 75.0845 1.18294 73.4174 1.88224C71.7505 2.58222 70.2962 3.52149 69.0555 4.69976C67.8141 5.879 66.833 7.26029 66.1107 8.8435C65.3882 10.4277 65.0271 12.1221 65.0271 13.9265C65.0271 15.7315 65.3882 17.426 66.1107 19.0092C66.833 20.5933 67.8141 21.984 69.0555 23.1806C70.2962 24.3778 71.7505 25.3171 73.4174 25.9981C75.0845 26.6801 76.8625 27.0202 78.7516 27.0202C80.9743 27.0202 82.9096 26.5783 84.5583 25.6944C86.2061 24.8103 87.512 23.595 88.4756 22.0479H88.5868V25.5838C88.5868 26.0629 88.5676 26.6887 88.5313 27.4624C88.494 28.2358 88.3732 29.0549 88.17 29.921C87.9661 30.7858 87.6508 31.6516 87.2253 32.5176C86.7992 33.3824 86.2061 34.175 85.4473 34.8931C84.6877 35.6114 83.7248 36.1916 82.5579 36.6336C81.391 37.0755 79.9551 37.2965 78.2516 37.2965C76.2513 37.2965 74.362 36.9097 72.5838 36.1364C70.8058 35.3629 69.3238 34.1472 68.1387 32.49L65.5272 34.9209C66.194 35.7675 66.9804 36.523 67.8887 37.1859C68.7959 37.8488 69.8058 38.4099 70.917 38.871C72.0283 39.3312 73.2039 39.6806 74.4455 39.9209C75.686 40.1599 76.9544 40.2799 78.2516 40.2799C79.5478 40.2799 80.9925 40.0952 82.5857 39.7275C84.1779 39.359 85.6697 38.6406 87.0587 37.5729C88.4478 36.5039 89.6052 34.9942 90.5315 33.0423C91.4571 31.0896 91.9207 28.5301 91.9207 25.3629V1.49543H88.5868Z" fill="white"></path> </g> <path fill-rule="evenodd" clip-rule="evenodd" d="M80.9996 11.2059C80.5062 11.7769 80.5718 12.6376 81.1461 13.1282C81.7204 13.6187 82.586 13.5536 83.0793 12.9826C83.5728 12.4114 83.5072 11.5509 82.9329 11.0602C82.3586 10.5697 81.493 10.6349 80.9996 11.2059Z" fill="#2BCFE0"></path> </g> <defs> <clipPath id="clip0_290_645"> <rect width="154" height="39.5596" fill="white" transform="translate(0 0.720215)"></rect> </clipPath> </defs> </svg>