<svg id="Layer_1" data-name="Layer 1" xmlns="http://www.w3.org/2000/svg" viewBox="0 0 533.21 114.52"><defs><style>.cls-1,.cls-2{fill:#467fa4;}.cls-2{fill-rule:evenodd;}.cls-3{fill:#9d9fa2;}</style></defs><path class="cls-1" d="M125.74,69.35c1.05.07,1.85.18,1.94.6a6.73,6.73,0,0,1,.09,1.43V82.2a6.58,6.58,0,0,1-.09,1.42c-.09.42-.89.53-1.94.61V85h7.35v-.72c-1.05-.08-1.84-.19-1.94-.61a6.58,6.58,0,0,1-.09-1.42V77.35h2.22c1.56,0,2.05,1,2.12,2.33H136V74.24h-.63c0,1.33-.65,2.24-2.12,2.24h-2.22v-7h3c1.64,0,2.22,1.23,2.57,2.89h.63V68.62H125.74v.73Z"/><path class="cls-2" d="M173.52,85.23a8.76,8.76,0,0,0,8.93-8.86,8.05,8.05,0,0,0-8.09-8,8.63,8.63,0,0,0-8.86,8.56,8,8,0,0,0,8,8.33Zm.61-.84c-2.64,0-5-3-5-8.47,0-3.94,1.59-6.74,4.62-6.74,2.5,0,5.11,2.38,5.11,7.84,0,4.34-1.5,7.37-4.71,7.37Z"/><path class="cls-1" d="M216.69,71.38a6.73,6.73,0,0,1,.09-1.43c.09-.42.91-.53,1.94-.6v-.73h-7.35v.73c1,.07,1.84.18,1.94.6a6.73,6.73,0,0,1,.09,1.43v7.2c0,4.13,1.56,6.65,6.81,6.65,3.06,0,6.11-1.87,6.11-6.53V72.05a9.93,9.93,0,0,1,.12-1.54c.09-.77.72-1.09,2-1.16v-.73H223v.73c1.24.07,1.87.39,2,1.16,0,.45.11,1,.11,1.54v6.41c0,3.71-1.61,5.32-4.45,5.32-3,0-3.92-2.17-3.92-5V71.38Z"/><path class="cls-1" d="M272.44,85V72.05a9.93,9.93,0,0,1,.12-1.54c.12-.77.75-1.09,2-1.16v-.73h-5.87v.73c1.82.07,2.42.39,2.49,1.16a12.91,12.91,0,0,1,.14,1.54v8.56h-.05c-3.07-3.8-6.69-8.28-9.56-12h-5.43v.73a3.37,3.37,0,0,1,3,1.86V81.52a11.34,11.34,0,0,1-.11,1.54c-.1.77-.73,1.09-2,1.17V85H263v-.72c-1.79-.08-2.42-.4-2.54-1.17a9.83,9.83,0,0,1-.12-1.54V72.19h.05c3.48,4.2,7.42,9.17,10.22,12.76Z"/><path class="cls-2" d="M302.78,85h7.63c5.29,0,9.39-3.06,9.39-8.63,0-4.8-3.22-7.7-8.51-7.7h-8.51v.73c1.05.07,1.84.18,1.93.6a6.07,6.07,0,0,1,.1,1.43V82.2a5.94,5.94,0,0,1-.1,1.42c-.09.42-.88.53-1.93.61V85Zm5.32-15.56h1.7c4.22,0,6.46,2.52,6.46,7,0,5.88-2.73,7.84-6,7.84-1.8,0-2.12-.16-2.12-2.57V69.39Z"/><path class="cls-2" d="M358.24,79.75l.95,2.73c.38,1,.17,1.75-1.12,1.75V85h6.51v-.72c-1,0-1.71-.89-2.17-2.13-.86-2.24-3.68-9.91-5.08-13.76h-1.52c-2,5.13-4.8,12.71-5.64,14.46a2.35,2.35,0,0,1-2,1.43V85h4.54v-.72c-1.07,0-1.39-.73-1.07-1.71l.93-2.77Zm-5.27-1,2.52-6.81h0l2.31,6.81Z"/><path class="cls-1" d="M399.67,69.49h2c2,0,2.49,1.23,3.36,2.7h.63L405,68.62H391.07l-.63,3.57h.63c.86-1.47,1.37-2.7,3.36-2.7h2V82.2a5.94,5.94,0,0,1-.1,1.42c-.09.42-.88.53-1.93.61V85h7.34v-.72c-1.05-.08-1.84-.19-1.93-.61a5.94,5.94,0,0,1-.1-1.42V69.49Z"/><path class="cls-1" d="M438.87,71.38A6.73,6.73,0,0,1,439,70c.09-.42.89-.53,1.94-.6v-.73h-7.35v.73c1.05.07,1.84.18,1.94.6a6.73,6.73,0,0,1,.09,1.43V82.2a6.58,6.58,0,0,1-.09,1.42c-.1.42-.89.53-1.94.61V85h7.35v-.72c-1-.08-1.85-.19-1.94-.61a6.58,6.58,0,0,1-.09-1.42V71.38Z"/><path class="cls-2" d="M477.84,85.23a8.75,8.75,0,0,0,8.93-8.86,8,8,0,0,0-8.09-8,8.64,8.64,0,0,0-8.86,8.56,8,8,0,0,0,8,8.33Zm.61-.84c-2.63,0-5-3-5-8.47,0-3.94,1.59-6.74,4.63-6.74,2.49,0,5.1,2.38,5.1,7.84,0,4.34-1.49,7.37-4.71,7.37Z"/><path class="cls-1" d="M531.11,85V72.05a8.84,8.84,0,0,1,.12-1.54c.11-.77.74-1.09,2-1.16v-.73h-5.88v.73c1.82.07,2.43.39,2.5,1.16a15.4,15.4,0,0,1,.14,1.54v8.56h-.05c-3.08-3.8-6.69-8.28-9.56-12h-5.43v.73a3.38,3.38,0,0,1,3,1.86V81.52a9.83,9.83,0,0,1-.12,1.54c-.09.77-.72,1.09-2,1.17V85h5.9v-.72c-1.8-.08-2.43-.4-2.54-1.17a9.83,9.83,0,0,1-.12-1.54V72.19h.05c3.47,4.2,7.41,9.17,10.21,12.76Z"/><polygon class="cls-1" points="160.47 20.43 154.34 20.43 150.72 35.51 150.64 35.51 146.8 20.43 140.52 20.43 136.97 35.51 136.9 35.51 133.28 20.43 125.74 20.43 132.71 46.55 139.72 46.55 143.1 32.16 143.18 32.16 146.8 46.55 153.54 46.55 160.47 20.43 160.47 20.43"/><path class="cls-2" d="M180.3,46.55a10.86,10.86,0,0,1-.61-4.26V35.47c0-2.78.31-5.29-2.25-7.08-1.9-1.37-4.83-1.67-7.11-1.67-4.38,0-9,1.25-10.13,6.09l6.93.64c.23-1.63,1.48-2.17,3-2.17,1.82,0,2.28.69,2.28,2.44v.15a32.73,32.73,0,0,0-7.65,1.22c-2.7.84-5.1,2.89-5.1,6,0,3.88,3.16,5.86,6.77,5.86a7.08,7.08,0,0,0,6.36-3.08,12.82,12.82,0,0,0,.27,2.7Zm-7.92-8.72c0,2.13,0,4.53-2.89,4.53-1.18,0-2-.53-2-1.79,0-2.36,3-2.93,4.87-3.12v.38Z"/><path class="cls-1" d="M182.42,41c1.45,4.49,5.44,5.9,9.78,5.9s10.05-1.52,10.05-6.89a5.65,5.65,0,0,0-2.74-4.95,13.61,13.61,0,0,0-5.29-1.45,28,28,0,0,1-3.27-.45c-.5-.12-1.15-.38-1.15-1,0-.84,1.83-1,2.44-1,1.33,0,2.82.38,3.39,1.71l5.75-1.1c-1.3-3.66-5.14-5.06-8.8-5.06a11.55,11.55,0,0,0-6.24,1.48,5.91,5.91,0,0,0-3,5.1c0,5.18,4.84,6,8.91,6.55.69.08,3.27.27,3.27,1.26s-2.13,1.21-2.89,1.21c-1.63,0-3.73-.22-4.15-2.09l-6.05.8Z"/><path class="cls-1" d="M224,46.55V34.37c0-2,0-3.85-1.1-5.52s-3.08-2.13-5-2.13a6.75,6.75,0,0,0-5.48,2.66V20.43h-7.54V46.55h7.54V34.86a2.65,2.65,0,0,1,.42-1.86,2.14,2.14,0,0,1,1.79-1c1.56,0,1.83,1.1,1.83,2.39V46.55Z"/><path class="cls-2" d="M235.71,27.1h-7.53V46.55h7.53V27.1Zm0-7h-7.53v5.18h7.53V20.05Z"/><path class="cls-1" d="M240.22,27.1V46.55h7.54V35.32c0-1.6.19-3.39,2.28-3.39,1.64,0,1.64,1.64,1.64,2.82v11.8h7.54v-12c0-2,0-4.23-1.22-5.83s-3.24-2-5.06-2c-2.36,0-4.61.91-5.53,3.12h-.07V27.1Z"/><path class="cls-2" d="M271.31,46.32l3.73.19c.95,0,2.25,0,2.25,1.26,0,1.71-2.82,1.52-4,1.52a15.85,15.85,0,0,1-3.77-.34c-.8-.15-1.52-.54-1.52-1.45,0-1.14,1-1.22,1.9-1.22l1.37,0Zm.27-5.67c-.69,0-2.09.07-2.09-.92s1.25-.95,1.9-.95l.8,0,.87,0c3.92,0,8.91-1.07,8.91-5.94a5.67,5.67,0,0,0-2.17-4.38c.38-.68,1.45-.72,2.13-.72l1.87.08.19-5.22-.5,0-2.21-.11c-3,0-4.41,1.75-4.83,4.57a14.19,14.19,0,0,0-3.62-.38c-4,0-9.51,1.06-9.51,6.09a4.55,4.55,0,0,0,3.16,4.49c-1.91.72-3.73,2.05-3.73,4.3a3.73,3.73,0,0,0,1.78,3.08,3.88,3.88,0,0,0-2.81,3.77c0,4.57,7.31,4.8,10.54,4.8a23.85,23.85,0,0,0,7.39-.84c2.47-.84,4.34-2.59,4.34-5.37a6,6,0,0,0-2.25-4.83,8.51,8.51,0,0,0-4.83-1.33l-5.33-.23Zm1.29-5.41a2.13,2.13,0,0,1-2.4-2.36,2.29,2.29,0,1,1,4.57,0,2.1,2.1,0,0,1-2.17,2.32Z"/><path class="cls-1" d="M288.32,32.05v7.34c0,2.1,0,4,1.45,5.56a6.12,6.12,0,0,0,5.44,2l4.46-.57V40.91a8.26,8.26,0,0,1-2.17.35c-1.79,0-1.64-1.11-1.64-2.52V32.05h3.81V27.1h-3.89V20.66l-6.54.23-.58,6.21h-3.15v4.95Z"/><path class="cls-2" d="M313,26.72c-6.09,0-10.69,4-10.69,10.27,0,5.9,4.76,9.94,10.69,9.94s10.7-4,10.7-9.94c0-6.24-4.61-10.27-10.7-10.27Zm0,4.75c2.59,0,2.63,3.39,2.63,5.26,0,5.21-1.25,5.59-2.63,5.59s-2.62-.38-2.62-5.59c0-1.87,0-5.26,2.62-5.26Z"/><path class="cls-1" d="M326.92,27.1V46.55h7.53V35.32c0-1.6.2-3.39,2.29-3.39,1.64,0,1.64,1.64,1.64,2.82v11.8h7.53v-12c0-2,0-4.23-1.22-5.83s-3.23-2-5.06-2c-2.36,0-4.6.91-5.52,3.12H334V27.1Z"/><path class="cls-2" d="M385.93,46.55l-4.72-11.38c3.08-1.41,4.6-3.47,4.6-6.89A7.11,7.11,0,0,0,382.62,22a12.26,12.26,0,0,0-6.74-1.6H362.59V46.55h8.11v-10h2.51l3.81,10ZM370.7,31V26h3.24a5.15,5.15,0,0,1,2.28.34,2.4,2.4,0,0,1,1.26,2.14c0,2.24-2.1,2.51-3.85,2.51Z"/><path class="cls-2" d="M401.16,39.58c-.3,1.68-1.25,2.36-3,2.36-2.28,0-3-1.52-2.93-3.61h13v-1c0-6.4-4-10.58-10.43-10.58a10.83,10.83,0,0,0-7.73,3,10.83,10.83,0,0,0-2.85,7.35,9.7,9.7,0,0,0,3.2,7.31,11.44,11.44,0,0,0,7.84,2.55c4.6,0,8.79-2.17,10-6.89l-7.12-.46Zm-5.94-5.06c-.07-1.79.73-3.35,2.71-3.35s2.74,1.45,2.74,3.35Z"/><path class="cls-1" d="M410.28,41c1.45,4.49,5.45,5.9,9.79,5.9s10.05-1.52,10.05-6.89a5.65,5.65,0,0,0-2.74-4.95,13.61,13.61,0,0,0-5.3-1.45,28.3,28.3,0,0,1-3.27-.45c-.49-.12-1.14-.38-1.14-1,0-.84,1.83-1,2.43-1,1.34,0,2.82.38,3.39,1.71l5.75-1.1c-1.29-3.66-5.14-5.06-8.79-5.06a11.61,11.61,0,0,0-6.25,1.48,5.92,5.92,0,0,0-3,5.1c0,5.18,4.83,6,8.9,6.55.69.08,3.28.27,3.28,1.26s-2.13,1.21-2.89,1.21c-1.64,0-3.73-.22-4.15-2.09l-6.06.8Z"/><path class="cls-2" d="M446,39.58c-.3,1.68-1.26,2.36-3,2.36-2.28,0-3-1.52-2.93-3.61h13v-1c0-6.4-4-10.58-10.43-10.58a10.83,10.83,0,0,0-7.73,3,10.83,10.83,0,0,0-2.85,7.35,9.7,9.7,0,0,0,3.2,7.31,11.44,11.44,0,0,0,7.84,2.55c4.6,0,8.79-2.17,10-6.89L446,39.58Zm-5.94-5.06c-.07-1.79.73-3.35,2.71-3.35s2.74,1.45,2.74,3.35Z"/><path class="cls-2" d="M475.68,46.55a10.86,10.86,0,0,1-.61-4.26V35.47c0-2.78.31-5.29-2.24-7.08-1.91-1.37-4.84-1.67-7.13-1.67-4.37,0-9,1.25-10.12,6.09l6.93.64c.22-1.63,1.48-2.17,3-2.17,1.82,0,2.28.69,2.28,2.44v.15a32.64,32.64,0,0,0-7.65,1.22c-2.71.84-5.1,2.89-5.1,6,0,3.88,3.16,5.86,6.77,5.86a7.08,7.08,0,0,0,6.36-3.08,12.82,12.82,0,0,0,.27,2.7Zm-7.92-8.72c0,2.13,0,4.53-2.89,4.53-1.18,0-2-.53-2-1.79,0-2.36,3-2.93,4.87-3.12v.38Z"/><path class="cls-1" d="M485.22,31.09v-4h-6.43V46.55h7.53V38.1a6.92,6.92,0,0,1,.54-3.35c.61-1.11,1.86-1.33,3.08-1.33a5.76,5.76,0,0,1,1.45.19V26.79l-1-.07c-3-.23-4.41,1.67-5.06,4.37Z"/><path class="cls-1" d="M505.44,38.71c-.19,1.41-.8,2.89-2.44,2.89-2.47,0-2.51-3-2.51-4.8s0-4.87,2.4-4.87c1.67,0,2,1.52,2.24,2.86l0,.19,6.66-.57c-.57-4.88-4.38-7.69-9.17-7.69-6,0-10,4.3-10,10.16a10.24,10.24,0,0,0,2.9,7.39,9.43,9.43,0,0,0,7.15,2.66c4.95,0,8.53-2.66,9.22-7.69l-6.47-.53Z"/><path class="cls-1" d="M533.16,46.55V34.37c0-2,0-3.85-1.11-5.52s-3.08-2.13-5-2.13a6.75,6.75,0,0,0-5.48,2.66V20.43h-7.53V46.55h7.53V34.86A2.65,2.65,0,0,1,522,33a2.14,2.14,0,0,1,1.79-1c1.56,0,1.83,1.1,1.83,2.39V46.55Z"/><path class="cls-3" d="M50.42,114.4l0,.12c-.8-.25-1.59-.5-2.38-.77l.06-.23c.78.31,1.56.6,2.35.88ZM46.72,113l0,.31c-1-.37-2-.76-3.07-1.17l.23-.39c.95.43,1.9.85,2.87,1.25Zm-4.2-1.88.06,0-.25.45c-1.13-.48-2.23-1-3.33-1.5l.52-.51q1.48.8,3,1.53Zm-5.19-2.76.07,0-.61.6c-1.39-.71-2.73-1.46-4.08-2.26l1.07-.61c1.17.78,2.34,1.52,3.55,2.23Zm-5.74-3.77.07.06-1.21.7c-1.56-1-3-2-4.48-3.11l2-.52c1.19,1,2.39,2,3.65,2.87Zm-6.7-5.66L25,99l-2.29.62A62.2,62.2,0,0,1,18,95.22h3.46c1.09,1.29,2.21,2.51,3.41,3.69Zm-6.06-7.18.07.1H15a46,46,0,0,1-4.18-6.07l5.27,1.41a40.87,40.87,0,0,0,2.71,4.56ZM14,82l0,.11L8.4,80.59A28.31,28.31,0,0,1,6.59,72.8l6.21,3.58A29,29,0,0,0,14,82Zm58.7-38.54q3.69.93,7.17,2.14l0,.11c-1.23-.37-2.49-.71-3.76-1-29.68-7.4-57.71,2.76-62.67,22.63a25.8,25.8,0,0,0-.66,4l-6-3.48a22.66,22.66,0,0,1,.49-2.61c5-20,35.75-29.18,65.5-21.77Z"/><path class="cls-3" d="M88.76,7c25.84,31-11.15,65.24-48.27,57l0-.12C73.35,67,97.36,25.46,73.69.1l.07-.1,15,7Z"/><path class="cls-1" d="M58.24,26.81l-.05.12c-18.16-7.21-37-7.39-43,.8C7.53,38.3,18.55,58.58,40,73s45,17.48,52.71,6.91c3.71-5.09,4.38-12.33,1.69-20.09l.12,0c3.67,7.63,4.28,14.95,1,20.65C87.72,93.88,60.41,95,35.53,80.65s-41.36-38-33.59-51.44c7.12-12.34,33.38-13.51,56.3-2.4Z"/></svg>