<?xml version="1.0" standalone="no"?>
<!DOCTYPE svg PUBLIC "-//W3C//DTD SVG 20010904//EN"
 "http://www.w3.org/TR/2001/REC-SVG-20010904/DTD/svg10.dtd">
<svg version="1.0" xmlns="http://www.w3.org/2000/svg"
 width="1152.000000pt" height="1152.000000pt" viewBox="0 0 1152.000000 1152.000000"
 preserveAspectRatio="xMidYMid meet">
<metadata>
Created by potrace 1.14, written by Peter Selinger 2001-2017
</metadata>
<g transform="translate(0.000000,1152.000000) scale(0.100000,-0.100000)"
fill="#000000" stroke="none">
<path d="M0 8931 l0 -698 448 -1 c246 0 450 -1 454 -1 6 -1 24 -56 33 -101 2
-8 29 -116 60 -240 31 -124 59 -235 61 -247 2 -12 9 -34 14 -48 5 -14 7 -25 5
-25 -2 0 0 -11 5 -25 5 -14 12 -36 14 -48 2 -12 54 -222 115 -466 61 -244 113
-453 116 -465 2 -11 14 -57 25 -101 11 -44 23 -89 25 -100 2 -11 4 -20 5 -20
1 0 3 -8 5 -18 2 -10 15 -61 29 -115 14 -53 27 -108 30 -122 3 -14 14 -59 25
-100 11 -41 22 -86 25 -100 3 -14 30 -124 61 -245 31 -121 58 -228 60 -238 2
-10 6 -26 9 -35 3 -9 7 -28 10 -42 3 -14 12 -49 20 -78 8 -29 15 -56 15 -60 1
-4 6 -25 12 -47 6 -22 13 -47 14 -57 2 -9 16 -65 30 -123 15 -59 29 -115 30
-124 2 -9 4 -16 5 -16 1 0 4 -11 7 -25 7 -39 11 -55 13 -55 1 0 3 -7 14 -50 2
-11 9 -40 15 -65 7 -25 14 -56 17 -70 2 -14 8 -34 11 -45 4 -11 8 -27 9 -35 1
-8 14 -60 29 -115 14 -55 28 -111 31 -125 3 -14 14 -56 24 -95 10 -38 21 -81
23 -95 3 -14 8 -32 11 -40 3 -8 8 -26 10 -40 3 -14 9 -40 15 -59 6 -19 8 -38
5 -42 -3 -5 0 -9 7 -9 7 0 10 -3 6 -6 -3 -3 1 -29 10 -57 8 -28 16 -58 18 -66
2 -9 8 -36 14 -61 11 -41 18 -71 26 -110 2 -8 4 -15 5 -15 2 0 5 -16 13 -57 3
-15 8 -31 11 -36 3 -5 7 -19 10 -33 2 -13 9 -44 15 -69 7 -25 14 -56 17 -70 2
-14 7 -33 10 -42 3 -9 7 -25 9 -35 2 -10 16 -63 30 -118 14 -55 28 -111 31
-125 3 -14 14 -56 24 -95 10 -38 21 -81 24 -95 3 -14 9 -40 15 -58 5 -18 10
-36 11 -40 0 -4 3 -16 6 -28 3 -11 7 -29 9 -40 2 -10 4 -19 5 -19 2 0 3 -5 13
-55 3 -14 10 -40 16 -57 5 -18 8 -33 5 -33 -3 0 0 -8 5 -17 5 -10 11 -31 14
-48 3 -16 13 -57 22 -90 9 -33 18 -69 21 -80 3 -17 11 -52 20 -87 1 -5 3 -10
4 -13 1 -3 3 -8 4 -12 1 -5 13 -54 26 -110 l24 -103 1102 0 1102 0 12 48 c7
26 14 52 15 57 2 6 11 39 20 75 9 36 19 72 20 80 2 8 11 40 19 70 25 90 97
363 102 385 2 11 17 70 34 130 17 61 32 119 34 130 2 11 15 65 31 120 15 55
29 109 31 120 2 11 10 43 18 70 8 28 18 64 22 80 4 17 8 35 10 40 2 6 21 80
44 165 23 85 50 189 62 230 11 41 22 84 24 95 5 28 34 137 41 155 3 8 8 24 10
35 2 11 20 80 39 153 20 74 37 143 39 153 2 11 6 23 9 27 3 5 7 19 9 33 3 13
24 96 47 184 23 88 44 167 45 177 2 9 8 25 14 36 6 11 8 22 6 24 -3 3 2 24 10
48 8 23 12 46 9 51 -3 5 -1 9 4 9 5 0 9 6 9 13 0 6 8 41 18 77 9 36 18 72 20
80 2 8 16 60 30 115 27 97 102 385 110 415 2 8 4 15 5 15 1 0 3 7 5 15 1 8 13
53 25 100 12 47 23 90 24 95 11 43 19 65 26 65 6 0 34 -95 45 -155 3 -18 17
-75 25 -100 1 -5 4 -14 5 -20 4 -12 55 -223 60 -245 2 -8 45 -179 95 -380 50
-201 93 -372 95 -380 2 -8 14 -53 25 -100 12 -47 23 -92 25 -100 2 -8 10 -42
19 -75 8 -33 32 -132 54 -220 22 -88 43 -167 46 -175 3 -8 7 -26 10 -40 2 -14
18 -79 35 -145 110 -438 108 -430 115 -463 2 -9 9 -35 15 -57 6 -22 12 -49 14
-60 2 -11 7 -27 10 -35 5 -14 245 -975 252 -1013 2 -10 7 -27 10 -37 6 -20 15
-55 20 -85 2 -11 8 -33 13 -50 l8 -30 1102 -3 c732 -1 1102 1 1103 8 1 5 2 13
4 18 1 4 5 21 9 37 4 17 12 41 17 55 5 14 10 34 12 45 2 11 9 40 16 65 7 25
14 52 16 60 2 8 15 58 30 110 14 52 28 106 31 120 3 14 10 43 16 65 7 22 12
43 14 48 1 4 3 10 4 15 1 4 2 10 1 14 0 4 6 25 14 48 8 23 13 46 10 50 -3 5
-1 11 4 14 4 3 12 20 16 38 4 18 9 35 9 38 4 12 19 77 22 95 2 11 13 52 24 90
11 39 23 83 26 99 2 16 9 37 15 47 5 11 8 19 5 19 -2 0 4 27 14 60 10 33 16
60 14 60 -3 0 0 8 5 18 6 11 12 30 15 43 2 13 21 87 41 164 20 77 39 151 41
164 3 14 7 28 10 33 3 4 7 16 9 26 1 9 8 37 15 62 7 25 14 52 15 60 2 8 4 16
5 18 3 2 3 5 14 52 4 19 16 64 26 100 11 36 21 76 24 90 3 14 19 77 36 140 38
141 40 151 45 170 2 8 4 15 5 15 1 0 3 9 5 21 3 11 12 47 20 80 9 32 18 66 20
74 2 8 4 15 5 15 1 0 3 7 5 15 6 27 59 233 80 310 10 37 86 327 89 340 2 8 9
35 16 60 7 25 14 56 17 69 2 14 6 28 9 32 2 4 22 76 44 161 21 84 43 168 49
186 5 17 7 32 4 32 -3 0 -1 6 4 13 6 6 11 19 11 27 1 21 7 43 13 55 4 6 10 28
14 50 9 45 12 54 15 58 2 2 9 30 15 62 2 11 25 97 50 190 26 94 48 177 50 185
2 8 4 15 6 15 1 0 3 9 4 20 1 11 15 65 30 120 15 55 29 107 30 115 2 8 13 51
25 95 12 44 23 87 25 95 2 8 11 42 20 75 9 33 18 67 20 75 1 8 5 22 8 30 3 8
22 78 42 155 19 77 38 148 40 158 3 9 7 26 10 38 2 11 7 29 10 39 3 10 8 27
10 37 2 10 45 173 96 363 50 190 94 357 96 373 3 15 10 30 15 33 5 4 210 6
454 6 l444 1 0 698 0 699 -1533 0 -1533 0 2 -692 c1 -381 2 -696 3 -700 0 -3
218 -6 483 -6 343 1 483 -2 486 -10 2 -6 -7 -46 -19 -89 -12 -43 -22 -82 -24
-88 -1 -5 -7 -30 -14 -55 -7 -25 -15 -52 -16 -60 -2 -8 -8 -29 -14 -47 -5 -17
-7 -34 -3 -37 3 -3 1 -6 -4 -6 -5 0 -11 -11 -12 -26 -1 -14 -6 -33 -11 -42 -4
-9 -7 -25 -6 -34 2 -10 0 -18 -4 -18 -4 0 -8 -6 -9 -12 -1 -16 -6 -36 -15 -63
-3 -11 -8 -31 -11 -45 -3 -14 -15 -59 -26 -100 -25 -92 -60 -219 -66 -242 -6
-27 -12 -48 -30 -113 -9 -33 -18 -67 -19 -75 -2 -8 -13 -49 -24 -90 -12 -41
-31 -111 -42 -155 -12 -44 -24 -87 -27 -95 -7 -21 -12 -40 -17 -72 -2 -15 -8
-35 -14 -45 -5 -10 -9 -21 -10 -25 -1 -5 -1 -9 -2 -10 0 -2 -2 -10 -4 -18 -1
-8 -17 -69 -34 -135 -18 -66 -34 -127 -36 -135 -2 -8 -8 -27 -14 -42 -6 -16
-9 -28 -6 -28 2 0 -2 -18 -10 -40 -8 -22 -14 -42 -15 -45 0 -3 0 -6 -1 -7 -2
-8 -9 -36 -14 -60 -3 -15 -9 -38 -14 -50 -5 -13 -9 -26 -10 -30 0 -5 -1 -9 -2
-10 -3 -11 -10 -39 -18 -73 -5 -22 -23 -88 -39 -147 -16 -60 -27 -108 -25
-108 3 0 0 -7 -7 -15 -7 -8 -9 -15 -6 -15 4 0 2 -8 -3 -18 -6 -11 -12 -30 -14
-43 -3 -13 -10 -44 -17 -69 -7 -25 -13 -49 -15 -55 -1 -5 -4 -17 -8 -25 -3 -8
-10 -35 -16 -60 -6 -25 -25 -96 -42 -159 -17 -62 -32 -120 -34 -130 -1 -9 -9
-36 -16 -61 -7 -25 -13 -48 -15 -52 -1 -5 -2 -9 -3 -10 -2 -2 -4 -12 -7 -23
-2 -11 -26 -103 -54 -205 -28 -102 -52 -192 -54 -200 -2 -8 -11 -42 -20 -75
-9 -33 -19 -71 -22 -85 -3 -14 -8 -34 -11 -45 -4 -11 -8 -23 -9 -27 -1 -5 -3
-10 -4 -13 -3 -6 -4 -9 -13 -57 -5 -21 -11 -38 -15 -38 -7 0 -25 60 -36 115
-2 11 -26 111 -54 222 -28 111 -54 212 -56 225 -13 59 -67 275 -73 288 -4 8
-8 22 -9 30 -1 8 -5 29 -9 45 -3 17 -7 36 -7 43 -1 6 -5 12 -10 12 -5 0 -7 4
-4 8 3 4 -13 78 -35 163 -21 84 -41 163 -43 174 -2 11 -18 75 -35 142 -17 67
-33 132 -35 145 -3 12 -5 23 -6 23 -2 0 -2 2 -30 115 -12 47 -22 95 -23 108 0
12 -4 22 -7 22 -4 0 -7 6 -7 13 -1 17 -17 85 -48 202 -14 55 -27 109 -30 120
-2 11 -25 103 -50 205 -26 102 -48 190 -50 195 -1 6 -5 21 -8 35 -20 76 -228
916 -231 934 -2 11 -9 33 -15 49 -6 15 -9 27 -7 27 2 0 -4 27 -14 59 -10 33
-16 62 -13 65 2 2 0 13 -6 24 -6 11 -14 37 -17 58 -3 20 -10 48 -15 61 -5 14
-9 35 -9 49 0 13 -5 24 -11 24 -5 0 -8 4 -5 8 3 5 1 26 -5 47 -10 35 -12 45
-24 96 -2 11 -7 29 -10 39 -7 23 -16 61 -19 80 -1 9 -5 20 -8 25 -3 6 -9 28
-13 50 -4 22 -11 54 -15 70 -19 67 -58 219 -75 295 -2 8 -4 15 -5 15 -1 0 -3
9 -5 20 -2 17 -9 45 -29 125 -12 45 -27 108 -32 130 -2 14 -8 34 -11 45 -4 11
-8 25 -9 31 -2 13 -83 341 -90 367 -5 16 -48 17 -714 17 l-710 0 -7 -27 c-4
-16 -8 -31 -9 -35 -1 -5 -2 -9 -4 -10 -1 -2 -3 -10 -5 -18 -1 -8 -12 -49 -23
-90 -21 -76 -92 -347 -97 -365 -1 -5 -5 -17 -8 -25 -5 -13 -35 -126 -41 -155
-1 -5 -9 -35 -18 -65 -19 -66 -99 -368 -103 -390 -2 -8 -4 -17 -6 -20 -1 -3
-3 -9 -4 -15 -1 -5 -4 -17 -8 -25 -5 -13 -16 -56 -22 -85 -2 -6 -14 -53 -29
-105 -28 -105 -48 -180 -51 -195 -2 -5 -17 -62 -35 -125 -31 -114 -35 -129
-45 -172 -3 -13 -12 -48 -21 -78 -21 -72 -38 -133 -69 -255 -34 -130 -30 -113
-66 -245 -17 -63 -44 -162 -59 -220 -16 -58 -35 -130 -43 -160 -9 -30 -13 -58
-11 -62 3 -5 1 -8 -4 -8 -5 0 -13 -19 -17 -42 -5 -24 -9 -45 -10 -48 0 -3 -4
-16 -8 -30 -4 -14 -12 -41 -17 -60 -6 -19 -24 -84 -41 -145 -17 -60 -32 -119
-34 -130 -2 -11 -22 -87 -45 -170 -22 -82 -42 -157 -44 -165 -2 -8 -9 -35 -16
-60 -7 -25 -14 -52 -15 -60 -2 -8 -4 -15 -5 -15 -1 0 -3 -7 -5 -15 -1 -9 -22
-85 -45 -170 -23 -85 -44 -162 -46 -170 -3 -16 -41 -154 -48 -180 -3 -8 -14
-51 -26 -95 -12 -44 -23 -87 -25 -95 -17 -61 -26 -99 -31 -120 -2 -14 -9 -36
-14 -50 -10 -27 -69 -249 -76 -284 -2 -12 -9 -34 -15 -49 -7 -15 -9 -30 -5
-34 3 -3 1 -11 -4 -18 -5 -6 -11 -20 -13 -31 -6 -29 -18 -77 -24 -94 -3 -8 -7
-22 -9 -30 -6 -35 -37 -136 -45 -150 -7 -13 -9 -13 -9 0 -3 30 -65 296 -77
330 -3 8 -7 22 -9 30 -7 36 -66 276 -71 290 -3 8 -7 22 -9 30 -3 17 -32 133
-39 163 -8 26 -15 59 -21 91 -2 16 -7 33 -10 38 -3 5 -7 18 -10 31 -2 12 -15
67 -29 122 -14 55 -28 114 -30 130 -3 17 -9 41 -14 55 -5 14 -15 50 -22 80 -7
30 -14 57 -14 60 -2 7 -14 55 -31 125 -8 33 -17 67 -18 75 -2 8 -9 33 -14 55
-6 22 -13 51 -16 65 -2 14 -7 32 -10 40 -3 8 -8 26 -10 40 -8 40 -21 91 -35
138 -5 17 -8 32 -5 32 3 0 0 8 -5 18 -5 9 -11 31 -15 47 -3 17 -12 57 -21 90
-8 33 -17 69 -19 80 -6 26 -8 35 -45 180 -16 66 -32 131 -35 145 -3 14 -9 40
-15 58 -5 17 -7 32 -4 32 3 0 1 6 -5 13 -5 6 -12 28 -16 47 -3 19 -19 89 -36
155 -16 66 -32 131 -36 145 -3 14 -6 30 -8 35 -2 6 -6 24 -10 40 -4 17 -11 44
-16 60 -5 17 -11 41 -14 55 -10 51 -16 74 -25 104 -6 17 -12 45 -15 61 -2 17
-5 30 -6 30 -1 0 -4 13 -6 29 -3 16 -10 38 -15 49 -6 10 -8 21 -5 24 2 3 0 17
-6 32 -10 26 -14 42 -24 95 -2 16 -8 34 -11 39 -3 6 -7 20 -9 31 -1 12 -20 93
-43 181 -22 87 -38 161 -36 163 2 2 231 4 509 4 l506 0 0 117 c1 162 1 1153 0
1224 l0 57 -2050 0 -2050 0 0 -699z"/>
</g>
</svg>
